<?xml version="1.0" encoding="UTF-8"?>
<svg version="1.1" xmlns="http://www.w3.org/2000/svg" width="240" height="76">
<path d="M0 0 C79.2 0 158.4 0 240 0 C240 25.08 240 50.16 240 76 C160.8 76 81.6 76 0 76 C0 50.92 0 25.84 0 0 Z " fill="#FCFCFC" transform="translate(0,0)"/>
<path d="M0 0 C0 8.58 0 17.16 0 26 C-5.81625 28.2275 -5.81625 28.2275 -11.75 30.5 C-13.5748291 31.20479492 -13.5748291 31.20479492 -15.43652344 31.92382812 C-16.40106445 32.28927734 -17.36560547 32.65472656 -18.359375 33.03125 C-19.83615723 33.59682617 -19.83615723 33.59682617 -21.34277344 34.17382812 C-24 35 -24 35 -28 35 C-28 26.75 -28 18.5 -28 10 C-23.89829185 8.32705276 -19.79387826 6.66141056 -15.6875 5 C-14.52025391 4.52304687 -13.35300781 4.04609375 -12.15039062 3.5546875 C-11.03212891 3.10351562 -9.91386719 2.65234375 -8.76171875 2.1875 C-7.73006592 1.76855469 -6.69841309 1.34960938 -5.63549805 0.91796875 C-3 0 -3 0 0 0 Z " fill="#01D1F7" transform="translate(63,24)"/>
<path d="M0 0 C1.01771484 0.42925781 2.03542969 0.85851562 3.08398438 1.30078125 C5.58175602 2.35617772 8.07408964 3.42276057 10.5625 4.5 C10.5625 5.82 10.5625 7.14 10.5625 8.5 C6.86085036 10.01687847 3.15021766 11.51043978 -0.5625 13 C-1.60921875 13.42925781 -2.6559375 13.85851562 -3.734375 14.30078125 C-4.75273438 14.70683594 -5.77109375 15.11289062 -6.8203125 15.53125 C-7.75246582 15.90830078 -8.68461914 16.28535156 -9.64501953 16.67382812 C-14.98363125 18.253288 -18.96687481 17.58924165 -24.0546875 15.53125 C-25.58222656 14.92216797 -25.58222656 14.92216797 -27.140625 14.30078125 C-28.18734375 13.87152344 -29.2340625 13.44226563 -30.3125 13 C-31.38242187 12.57074219 -32.45234375 12.14148438 -33.5546875 11.69921875 C-36.18613769 10.64193966 -38.81338326 9.57532224 -41.4375 8.5 C-41.22900391 6.64746094 -41.22900391 6.64746094 -40.4375 4.5 C-38.41552734 3.21972656 -38.41552734 3.21972656 -35.7734375 2.140625 C-34.81566406 1.74746094 -33.85789062 1.35429687 -32.87109375 0.94921875 C-31.86175781 0.55347656 -30.85242188 0.15773438 -29.8125 -0.25 C-28.82636719 -0.66121094 -27.84023438 -1.07242187 -26.82421875 -1.49609375 C-16.25925508 -5.74182681 -10.24010081 -4.43715494 0 0 Z " fill="#FCD104" transform="translate(47.4375,13.5)"/>
<path d="M0 0 C1.98 0 3.96 0 6 0 C6.33 3.96 6.66 7.92 7 12 C7.99 11.34 8.98 10.68 10 10 C13.96869102 9.4708412 15.71621958 9.84173784 19.25 11.8125 C22 14 22 14 24 17 C24.46090454 22.62303544 24.13378514 26.12522312 21 31 C17.877998 33.08133467 17.06733011 33.2737822 13.5 33.25 C12.33984375 33.25773437 12.33984375 33.25773437 11.15625 33.265625 C9 33 9 33 6 31 C6 31.66 6 32.32 6 33 C4.02 33 2.04 33 0 33 C0 22.11 0 11.22 0 0 Z " fill="#3B3B3B" transform="translate(180,19)"/>
<path d="M0 0 C2.64 0 5.28 0 8 0 C9.71560791 4.21487449 11.42440843 8.43241971 13.12695312 12.65258789 C13.70711873 14.08791372 14.28913894 15.52249135 14.87304688 16.95629883 C15.71192052 19.01710321 16.54409239 21.08050434 17.375 23.14453125 C17.63748535 23.78526077 17.8999707 24.4259903 18.17041016 25.08613586 C19.29601297 27.89908129 20 29.93718295 20 33 C18.02 33 16.04 33 14 33 C11 27.25 11 27.25 11 25 C6.38 25.33 1.76 25.66 -3 26 C-3.99 28.31 -4.98 30.62 -6 33 C-7.98 33 -9.96 33 -12 33 C-11.3227011 28.8856619 -10.03379361 25.25748046 -8.49609375 21.38671875 C-8.2533522 20.77230423 -8.01061066 20.15788971 -7.76051331 19.52485657 C-6.9901095 17.57748441 -6.21390549 15.63248603 -5.4375 13.6875 C-4.91172353 12.36148105 -4.38632887 11.03531064 -3.86132812 9.70898438 C-2.5786321 6.47089192 -1.29072651 3.23490115 0 0 Z " fill="#3A3A3A" transform="translate(88,19)"/>
<path d="M0 0 C2.375 1.5 2.375 1.5 4 3 C4.33 2.34 4.66 1.68 5 1 C6.65 1 8.3 1 10 1 C10 8.26 10 15.52 10 23 C7 23 4 23 1 23 C0.31164062 23.06960937 -0.37671875 23.13921875 -1.0859375 23.2109375 C-5.52345417 23.52898477 -7.40507404 23.44922981 -11.0625 20.6875 C-13.6344904 16.92361161 -13.69360497 13.01327051 -13.5 8.56640625 C-12.77004974 4.81970846 -11.04881937 3.17772812 -8 1 C-5.19084526 -0.40457737 -3.11189466 -0.24895157 0 0 Z " fill="#3A3A3A" transform="translate(166,29)"/>
<path d="M0 0 C8.90054879 2.75107872 17.41643491 6.40298363 26 10 C26 10.99 26 11.98 26 13 C22.25612904 14.84604796 18.50397209 16.67459183 14.75 18.5 C13.68652344 19.02464844 12.62304688 19.54929687 11.52734375 20.08984375 C10.50253906 20.58613281 9.47773438 21.08242188 8.421875 21.59375 C7.47924805 22.05458984 6.53662109 22.51542969 5.56542969 22.99023438 C3 24 3 24 -1 24 C-1.02887236 20.18751574 -1.04675492 16.3750593 -1.0625 12.5625 C-1.07087891 11.47388672 -1.07925781 10.38527344 -1.08789062 9.26367188 C-1.09111328 8.22919922 -1.09433594 7.19472656 -1.09765625 6.12890625 C-1.10289307 5.17056885 -1.10812988 4.21223145 -1.11352539 3.22485352 C-1 1 -1 1 0 0 Z " fill="#FE0241" transform="translate(3,24)"/>
<path d="M0 0 C3.62760073 1.64890942 6.08652985 3.47518657 8 7 C8 8.98 8 10.96 8 13 C2.72 13 -2.56 13 -8 13 C-7.34 14.32 -6.68 15.64 -6 17 C-0.42169984 17.12469099 -0.42169984 17.12469099 5 16 C5.66 17.32 6.32 18.64 7 20 C2.96671942 23.22662446 -0.62868503 23.56361203 -5.62109375 23.4296875 C-9.26759001 22.77104285 -10.85555143 20.90538193 -13 18 C-14.74221711 14.51556578 -14.58675154 10.80112955 -14 7 C-10.57817296 0.8202825 -6.81779 -0.46222305 0 0 Z " fill="#3D3D3D" transform="translate(230,29)"/>
<path d="M0 0 C1.98 0 3.96 0 6 0 C6 2.97 6 5.94 6 9 C7.65 9 9.3 9 11 9 C11 10.65 11 12.3 11 14 C9.35 14 7.7 14 6 14 C6 17.63 6 21.26 6 25 C7.32 25.33 8.64 25.66 10 26 C10 27.65 10 29.3 10 31 C6.3748235 31.41195187 4.60873162 31.44853908 1.625 29.25 C-0.85354783 24.29290434 -0.31247714 19.44231023 0 14 C-1.32 14 -2.64 14 -4 14 C-4 12.35 -4 10.7 -4 9 C-2.68 9 -1.36 9 0 9 C0 6.03 0 3.06 0 0 Z " fill="#414141" transform="translate(140,21)"/>
<path d="M0 0 C0 1.98 0 3.96 0 6 C-2.31 6.66 -4.62 7.32 -7 8 C-7.33 12.95 -7.66 17.9 -8 23 C-9.98 23 -11.96 23 -14 23 C-14 15.74 -14 8.48 -14 1 C-12.02 1 -10.04 1 -8 1 C-7.67 1.66 -7.34 2.32 -7 3 C-6.5875 2.505 -6.175 2.01 -5.75 1.5 C-4 0 -4 0 0 0 Z " fill="#424242" transform="translate(134,29)"/>
<path d="M0 0 C1.65 0 3.3 0 5 0 C5 10.56 5 21.12 5 32 C3.35 32 1.7 32 0 32 C0 21.44 0 10.88 0 0 Z " fill="#2F2F2F" transform="translate(207,19)"/>
<path d="M0 0 C8.90054879 2.75107872 17.41643491 6.40298363 26 10 C26 10.99 26 11.98 26 13 C20.59307426 16.0721169 20.59307426 16.0721169 18.00830078 15.7578125 C15.76094876 14.90979637 14.40942409 13.90467055 12.6171875 12.3125 C12.00746094 11.77882813 11.39773438 11.24515625 10.76953125 10.6953125 C10.14433594 10.13585938 9.51914063 9.57640625 8.875 9 C7.62389483 7.89413514 6.37135568 6.78988986 5.1171875 5.6875 C4.56659668 5.19636719 4.01600586 4.70523437 3.44873047 4.19921875 C1.99327197 2.90253824 1.99327197 2.90253824 0 2 C0 1.34 0 0.68 0 0 Z " fill="#D70740" transform="translate(3,24)"/>
<path d="M0 0 C1.98 0 3.96 0 6 0 C6 7.26 6 14.52 6 22 C4.02 22 2.04 22 0 22 C0 14.74 0 7.48 0 0 Z " fill="#3E3E3E" transform="translate(110,30)"/>
<path d="M0 0 C1.9375 1.0625 1.9375 1.0625 3 3 C2.875 6.5625 2.875 6.5625 2 10 C-1.23253796 12.15502531 -2.25150923 12.46856135 -6 12 C-7.8125 10.875 -7.8125 10.875 -9 9 C-9.39365568 5.85075452 -9.52854531 3.88090884 -7.875 1.125 C-5.11909116 -0.52854531 -3.14924548 -0.39365568 0 0 Z " fill="#F4F4F4" transform="translate(195,35)"/>
<path d="M0 0 C3.5 0.25 3.5 0.25 5.5 2.25 C6.05416667 8.34583333 6.05416667 8.34583333 4.3125 11.1875 C1.83950907 12.63718434 0.32115488 12.67317323 -2.5 12.25 C-4.3125 11.1875 -4.3125 11.1875 -5.5 9.25 C-5.8125 5.6875 -5.8125 5.6875 -5.5 2.25 C-3.5 0.25 -3.5 0.25 0 0 Z " fill="#F7F7F7" transform="translate(164.5,34.75)"/>
<path d="M0 0 C0.66 0 1.32 0 2 0 C2.6708712 1.6232687 3.33657029 3.24867578 4 4.875 C4.556875 6.23238281 4.556875 6.23238281 5.125 7.6171875 C6 10 6 10 6 12 C2.7 12 -0.6 12 -4 12 C-3.52309796 10.37433394 -3.04340334 8.74948689 -2.5625 7.125 C-2.29566406 6.22007813 -2.02882813 5.31515625 -1.75390625 4.3828125 C-1 2 -1 2 0 0 Z " fill="#E4E4E4" transform="translate(91,27)"/>
<path d="M0 0 C4.95 0 9.9 0 15 0 C14.01 0.495 14.01 0.495 13 1 C13 1.66 13 2.32 13 3 C9.36534398 5.32617985 6.23963281 5.31404687 2 5 C1.34 4.34 0.68 3.68 0 3 C0 2.01 0 1.02 0 0 Z " fill="#F3F3F3" transform="translate(222,42)"/>
<path d="M0 0 C1.67542976 0.28604898 3.34385343 0.61781233 5 1 C5.625 2.875 5.625 2.875 6 5 C5.34 5.66 4.68 6.32 4 7 C1.875 6.625 1.875 6.625 0 6 C-0.38218767 4.34385343 -0.71395102 2.67542976 -1 1 C-0.67 0.67 -0.34 0.34 0 0 Z " fill="#414141" transform="translate(111,19)"/>
<path d="M0 0 C-0.33 0.99 -0.66 1.98 -1 3 C-3.28515625 3.94921875 -3.28515625 3.94921875 -6.0625 4.6875 C-7.44115234 5.06455078 -7.44115234 5.06455078 -8.84765625 5.44921875 C-9.55792969 5.63097656 -10.26820312 5.81273437 -11 6 C-11 4.68 -11 3.36 -11 2 C-9.73392393 1.46770674 -8.46189588 0.94955456 -7.1875 0.4375 C-6.47980469 0.14746094 -5.77210937 -0.14257812 -5.04296875 -0.44140625 C-3 -1 -3 -1 0 0 Z " fill="#F3F9ED" transform="translate(49,27)"/>
<path d="M0 0 C1.98 0 3.96 0 6 0 C6.66 1.32 7.32 2.64 8 4 C4.7 4 1.4 4 -2 4 C-1.34 2.68 -0.68 1.36 0 0 Z " fill="#F2F2F2" transform="translate(224,34)"/>
</svg>
