<?xml version="1.0" encoding="UTF-8"?>
<svg version="1.1" xmlns="http://www.w3.org/2000/svg" width="172" height="76">
<path d="M0 0 C56.76 0 113.52 0 172 0 C172 25.08 172 50.16 172 76 C115.24 76 58.48 76 0 76 C0 50.92 0 25.84 0 0 Z " fill="#FDFDFD" transform="translate(0,0)"/>
<path d="M0 0 C2.76375 0.020625 5.5275 0.04125 8.375 0.0625 C8.375 7.3225 8.375 14.5825 8.375 22.0625 C6.395 21.7325 4.415 21.4025 2.375 21.0625 C1.715 21.3925 1.055 21.7225 0.375 22.0625 C-2.68420574 22.48321592 -5.5717746 22.54764117 -8.625 22.0625 C-11.84340301 19.51459761 -14.36034937 17.27081431 -14.86328125 13.07421875 C-14.9963075 8.90839668 -15.01331668 6.68380669 -12.75 3.0625 C-8.81040398 -0.64535508 -5.13555753 -0.05378295 0 0 Z " fill="#36445C" transform="translate(108.625,29.9375)"/>
<path d="M0 0 C1.58206422 0.00574487 3.16410406 0.01876032 4.74609375 0.03515625 C7.53046875 0.05578125 10.31484375 0.07640625 13.18359375 0.09765625 C13.18359375 7.35765625 13.18359375 14.61765625 13.18359375 22.09765625 C11.53359375 21.76765625 9.88359375 21.43765625 8.18359375 21.09765625 C7.52359375 21.42765625 6.86359375 21.75765625 6.18359375 22.09765625 C2.38943856 22.62883798 -1.27971803 22.94854973 -4.70703125 21.05078125 C-7.53535482 18.71672782 -9.58164315 16.80471939 -10.08984375 13.109375 C-10.28798276 8.57503998 -10.34797586 6.75189577 -7.37890625 3.09765625 C-6.53328125 2.43765625 -5.68765625 1.77765625 -4.81640625 1.09765625 C-3.81640625 0.09765625 -3.81640625 0.09765625 0 0 Z " fill="#39485F" transform="translate(156.81640625,29.90234375)"/>
<path d="M0 0 C0.99 0 1.98 0 3 0 C4.32 0 5.64 0 7 0 C7 7.26 7 14.52 7 22 C5.35 21.67 3.7 21.34 2 21 C1.34 21.33 0.68 21.66 0 22 C-3.78566792 22.52999351 -7.44856036 22.83021253 -10.890625 20.98828125 C-14.70669494 17.90393346 -15.7917043 15.54733952 -16.4375 10.75 C-15.93133459 6.41143933 -14.92885358 4.45659643 -11.98828125 1.3125 C-8.25334725 -1.15299671 -4.27726196 -0.46379949 0 0 Z " fill="#314059" transform="translate(62,30)"/>
<path d="M0 0 C0.99 0 1.98 0 3 0 C3 0.66 3 1.32 3 2 C3.99 1.34 4.98 0.68 6 0 C8.0859375 -0.37109375 8.0859375 -0.37109375 10.375 -0.4375 C11.50035156 -0.49744141 11.50035156 -0.49744141 12.6484375 -0.55859375 C16.3648855 0.32421699 17.75276378 1.95383391 20 5 C20.5844104 7.96942685 20.47657398 10.8011115 20.3125 13.8125 C20.28994141 14.60076172 20.26738281 15.38902344 20.24414062 16.20117188 C20.18554161 18.13493929 20.09586827 20.06772167 20 22 C18.68 22 17.36 22 16 22 C15.95101562 20.94039062 15.90203125 19.88078125 15.8515625 18.7890625 C15.77653291 17.40101503 15.70098515 16.01299549 15.625 14.625 C15.5940625 13.92632812 15.563125 13.22765625 15.53125 12.5078125 C15.40500502 8.29814173 15.40500502 8.29814173 13 5 C10.36 5 7.72 5 5 5 C4.67 10.61 4.34 16.22 4 22 C2.68 22 1.36 22 0 22 C0 14.74 0 7.48 0 0 Z " fill="#34435B" transform="translate(123,30)"/>
<path d="M0 0 C0.87785156 0.01546875 1.75570312 0.0309375 2.66015625 0.046875 C4.9375 0.25 4.9375 0.25 6.9375 1.25 C6.6075 2.57 6.2775 3.89 5.9375 5.25 C3.2975 4.92 0.6575 4.59 -2.0625 4.25 C-2.3925 5.24 -2.7225 6.23 -3.0625 7.25 C-2.36382812 7.51554687 -1.66515625 7.78109375 -0.9453125 8.0546875 C0.41980469 8.58449219 0.41980469 8.58449219 1.8125 9.125 C3.16988281 9.64707031 3.16988281 9.64707031 4.5546875 10.1796875 C6.9375 11.25 6.9375 11.25 8.9375 13.25 C9.43084144 16.37449581 9.18614748 17.83182014 7.5625 20.5625 C3.59756745 23.11138521 -0.46510091 22.91006064 -5.0625 22.25 C-6.0525 21.59 -7.0425 20.93 -8.0625 20.25 C-7.5675 18.765 -7.5675 18.765 -7.0625 17.25 C-3.7625 17.25 -0.4625 17.25 2.9375 17.25 C3.2675 16.26 3.5975 15.27 3.9375 14.25 C2.7 14.0025 1.4625 13.755 0.1875 13.5 C-3.57154374 12.54690912 -5.79786654 11.55259047 -8.0625 8.25 C-8.5 5.6875 -8.5 5.6875 -8.0625 3.25 C-5.69911453 0.0556177 -3.86565317 -0.11386313 0 0 Z " fill="#3B4960" transform="translate(82.0625,29.75)"/>
<path d="M0 0 C2.5 1.625 2.5 1.625 4 4 C4.5625 6.9375 4.5625 6.9375 4 10 C1.36788535 13.66900829 -0.08854326 14.84009531 -4.5625 15.625 C-8 15 -8 15 -10.4375 12.875 C-12.26836859 9.50620179 -12.64250722 7.77472994 -12 4 C-9.04906701 -0.67231057 -5.10537385 -1.0252595 0 0 Z " fill="#FF5184" transform="translate(34,42)"/>
<path d="M0 0 C2.5 1.5625 2.5 1.5625 4 4 C4.56288002 7.94016013 4.60396028 10.05782196 2.4375 13.4375 C-0.94217804 15.60396028 -3.05983987 15.56288002 -7 15 C-9.4375 13.5 -9.4375 13.5 -11 11 C-11.6227188 7.48305406 -11.63278358 4.26556715 -10 1 C-6.73443285 -0.63278358 -3.51694594 -0.6227188 0 0 Z " fill="#FF5681" transform="translate(13,42)"/>
<path d="M0 0 C2.4375 1.5 2.4375 1.5 4 4 C4.6227188 7.51694594 4.63278358 10.73443285 3 14 C-0.26556715 15.63278358 -3.48305406 15.6227188 -7 15 C-9.5 13.4375 -9.5 13.4375 -11 11 C-11.56288002 7.05983987 -11.60396028 4.94217804 -9.4375 1.5625 C-6.05782196 -0.60396028 -3.94016013 -0.56288002 0 0 Z " fill="#FF506C" transform="translate(23,24)"/>
<path d="M0 0 C1.9453125 0.37890625 1.9453125 0.37890625 4.5078125 1.94140625 C5.9453125 4.37890625 5.9453125 4.37890625 5.8828125 7.94140625 C4.9453125 11.37890625 4.9453125 11.37890625 3.8203125 13.31640625 C0.76078791 15.05013685 -1.62286275 14.80035841 -5.0546875 14.37890625 C-7.4921875 12.75390625 -7.4921875 12.75390625 -9.0546875 10.37890625 C-9.53757613 7.06766993 -9.35087739 5.08235725 -8.0546875 2.00390625 C-5.46231192 -0.10239891 -3.28423543 -0.18784372 0 0 Z " fill="#F7F7F8" transform="translate(160.0546875,33.62109375)"/>
<path d="M0 0 C2.4375 1.625 2.4375 1.625 4 4 C4.60605429 7.63632575 4.47161336 9.28314769 2.4375 12.375 C-0.95870843 14.63913895 -3.00099302 14.64269755 -7 14 C-9.69500656 11.58140437 -10.80636871 9.99236035 -11.5 6.4375 C-10.19781462 0.08934627 -5.87567428 -0.83938204 0 0 Z " fill="#F8F8F9" transform="translate(61,34)"/>
<path d="M0 0 C2 1 2 1 3 3 C3.52265149 6.5838959 3.66071832 9.75629493 1.9375 13 C-1.17909511 14.60856522 -3.56262469 14.42213381 -7 14 C-9.4375 12.4375 -9.4375 12.4375 -11 10 C-11.42213381 6.56262469 -11.60856522 4.17909511 -10 1.0625 C-6.75629493 -0.66071832 -3.5838959 -0.52265149 0 0 Z " fill="#F8F9FA" transform="translate(109,34)"/>
<path d="M0 0 C3.34430737 0.72366315 5.34262343 1.81715496 8 4 C6.88625 4.28875 5.7725 4.5775 4.625 4.875 C0.99708908 5.69241329 0.99708908 5.69241329 -1 8 C-0.76135558 13.03505052 -0.76135558 13.03505052 2 17 C4.68839385 17.26991906 7.29141936 17.08737357 10 17 C10 17.66 10 18.32 10 19 C7.02161338 19.99279554 5.09716622 20.07554064 2 20 C0.68 20 -0.64 20 -2 20 C-5.30406215 17.43017389 -5.88563947 14.84953535 -6.4375 10.75 C-5.85054656 5.71897048 -3.52562529 3.45217477 0 0 Z " fill="#3C4A62" transform="translate(52,30)"/>
<path d="M0 0 C0.87785156 0.01546875 1.75570312 0.0309375 2.66015625 0.046875 C4.9375 0.25 4.9375 0.25 6.9375 1.25 C6.6075 2.57 6.2775 3.89 5.9375 5.25 C3.2975 4.92 0.6575 4.59 -2.0625 4.25 C-2.3925 5.24 -2.7225 6.23 -3.0625 7.25 C-1.7425 8.24 -0.4225 9.23 0.9375 10.25 C0.6075 10.91 0.2775 11.57 -0.0625 12.25 C-2.9375 11.9375 -2.9375 11.9375 -6.0625 11.25 C-8.21752531 8.01746204 -8.53106135 6.99849077 -8.0625 3.25 C-5.71382243 0.04725786 -3.85768448 -0.11362841 0 0 Z " fill="#33425A" transform="translate(82.0625,29.75)"/>
<path d="M0 0 C2.97 0 5.94 0 9 0 C9 7.26 9 14.52 9 22 C8.01 21.67 7.02 21.34 6 21 C6.66 21 7.32 21 8 21 C8 14.4 8 7.8 8 1 C6.71387324 2.05978933 6.71387324 2.05978933 6.90234375 4.50390625 C6.91394531 5.51324219 6.92554687 6.52257813 6.9375 7.5625 C6.94652344 8.57441406 6.95554687 9.58632813 6.96484375 10.62890625 C6.97644531 11.41136719 6.98804687 12.19382812 7 13 C6.01 13.33 5.02 13.66 4 14 C3.87625 12.88625 3.7525 11.7725 3.625 10.625 C3.3534187 6.96896323 3.3534187 6.96896323 1 5 C-0.98821313 4.60235737 -2.98944339 4.26224651 -5 4 C-5 3.67 -5 3.34 -5 3 C-3.35 3 -1.7 3 0 3 C0 2.01 0 1.02 0 0 Z " fill="#38475E" transform="translate(108,30)"/>
<path d="M0 0 C0.99 0 1.98 0 3 0 C3 6.6 3 13.2 3 20 C-0.96 20.33 -4.92 20.66 -9 21 C-9 20.01 -9 19.02 -9 18 C-8.0925 17.566875 -7.185 17.13375 -6.25 16.6875 C-2.36228185 14.6937165 -2.36228185 14.6937165 1 12 C1.69749589 9.27510527 1.69749589 9.27510527 1.75 6.3125 C1.80671875 5.31863281 1.8634375 4.32476562 1.921875 3.30078125 C1.94765625 2.54152344 1.9734375 1.78226563 2 1 C1.34 0.67 0.68 0.34 0 0 Z " fill="#2C3B54" transform="translate(113,31)"/>
<path d="M0 0 C0.82757813 0.49113281 0.82757813 0.49113281 1.671875 0.9921875 C4.38780923 2.16787715 6.30551759 2.20248638 9.25 2.125 C10.58804687 2.09792969 10.58804687 2.09792969 11.953125 2.0703125 C12.62859375 2.04710937 13.3040625 2.02390625 14 2 C14 3.32 14 4.64 14 6 C12.84371094 6.07347656 12.84371094 6.07347656 11.6640625 6.1484375 C10.66117188 6.22320312 9.65828125 6.29796875 8.625 6.375 C7.62726562 6.44460937 6.62953125 6.51421875 5.6015625 6.5859375 C2.84491121 6.76363964 2.84491121 6.76363964 1 9 C-0.4783226 6.04335481 -0.06032783 3.25770263 0 0 Z " fill="#FF5C85" transform="translate(12,28)"/>
<path d="M0 0 C0.33 0 0.66 0 1 0 C1.185625 1.11375 1.37125 2.2275 1.5625 3.375 C2.036875 4.57125 2.51125 5.7675 3 7 C6.51400668 8.54086322 6.51400668 8.54086322 10 9 C9.67 9.99 9.34 10.98 9 12 C6.3125 12.8125 6.3125 12.8125 3 13 C0.25889867 10.8680323 -1.48256897 9.0672015 -3 5.9375 C-3 3.17411055 -1.83769303 1.97905404 0 0 Z " fill="#3B4960" transform="translate(97,39)"/>
<path d="M0 0 C3.96 0 7.92 0 12 0 C10 4 10 4 9 5 C1.47761194 5.23880597 1.47761194 5.23880597 -1 4 C-0.67 2.68 -0.34 1.36 0 0 Z " fill="#FF6E6D" transform="translate(15,34)"/>
<path d="M0 0 C0.66 0 1.32 0 2 0 C2.47661072 4.09885218 2.3448928 5.55930365 -0.25 8.875 C-3 11 -3 11 -7 11 C-5.20974068 7.12110481 -3.03770253 3.03770253 0 0 Z " fill="#FF4F6B" transform="translate(36,46)"/>
<path d="M0 0 C-0.48979592 6.48979592 -0.48979592 6.48979592 -2.9375 8.9375 C-5 10 -5 10 -7 10 C-7.3327958 6.33924624 -7.46170299 4.60499012 -5.1875 1.625 C-3 0 -3 0 0 0 Z " fill="#FF7F5A" transform="translate(29,42)"/>
<path d="M0 0 C2 4 4 8 6 12 C3.125 11.6875 3.125 11.6875 0 11 C-2.29013653 7.5647952 -2.17842973 6.014669 -2 2 C-1.34 2 -0.68 2 0 2 C0 1.34 0 0.68 0 0 Z " fill="#FF4B68" transform="translate(4,45)"/>
<path d="M0 0 C2.33543703 0.99079147 4.10734656 2.2689811 6.0625 3.875 C4.94875 4.16375 3.835 4.4525 2.6875 4.75 C-0.94041092 5.56741329 -0.94041092 5.56741329 -2.9375 7.875 C-5.0625 7.5 -5.0625 7.5 -6.9375 6.875 C-3.74722973 -0.24175676 -3.74722973 -0.24175676 0 0 Z " fill="#414F65" transform="translate(53.9375,30.125)"/>
<path d="M0 0 C2.97 0 5.94 0 9 0 C9 7.26 9 14.52 9 22 C8.01 21.67 7.02 21.34 6 21 C6.66 21 7.32 21 8 21 C8 14.4 8 7.8 8 1 C4.535 2.485 4.535 2.485 1 4 C-2.4375 4.1875 -2.4375 4.1875 -5 4 C-5 3.67 -5 3.34 -5 3 C-3.35 3 -1.7 3 0 3 C0 2.01 0 1.02 0 0 Z " fill="#5C677B" transform="translate(108,30)"/>
<path d="M0 0 C2.475 0.99 2.475 0.99 5 2 C5.33 4.31 5.66 6.62 6 9 C3.13275314 8.42655063 2.1385485 8.1385485 0 6 C-0.125 2.875 -0.125 2.875 0 0 Z " fill="#FF735D" transform="translate(11,42)"/>
<path d="M0 0 C1.09570312 0.00902344 2.19140625 0.01804687 3.3203125 0.02734375 C4.16335937 0.03894531 5.00640625 0.05054687 5.875 0.0625 C5.875 2.0425 5.875 4.0225 5.875 6.0625 C5.545 4.7425 5.215 3.4225 4.875 2.0625 C-1.065 2.5575 -1.065 2.5575 -7.125 3.0625 C-7.455 2.4025 -7.785 1.7425 -8.125 1.0625 C-5.36047967 -0.31976016 -3.0788637 -0.03275387 0 0 Z " fill="#FF4A7A" transform="translate(21.125,27.9375)"/>
<path d="M0 0 C2.97 0 5.94 0 9 0 C8.67 0.99 8.34 1.98 8 3 C5.36 3 2.72 3 0 3 C0 2.01 0 1.02 0 0 Z " fill="#FF8246" transform="translate(16,36)"/>
<path d="M0 0 C1.32 0.33 2.64 0.66 4 1 C3.67 3.31 3.34 5.62 3 8 C2.01 7.67 1.02 7.34 0 7 C0 4.69 0 2.38 0 0 Z " fill="#34425A" transform="translate(46,37)"/>
<path d="M0 0 C0.36923077 5.53846154 0.36923077 5.53846154 -1.5 7.875 C-2.2425 8.431875 -2.2425 8.431875 -3 9 C-4 8 -4 8 -4.25 5.625 C-4 3 -4 3 -2.5625 1.1875 C-1 0 -1 0 0 0 Z " fill="#303F57" transform="translate(151,37)"/>
<path d="M0 0 C3.3 0 6.6 0 10 0 C10 1.32 10 2.64 10 4 C8.51882199 3.71872579 7.04006751 3.42466268 5.5625 3.125 C4.73878906 2.96257813 3.91507813 2.80015625 3.06640625 2.6328125 C2.38449219 2.42398438 1.70257812 2.21515625 1 2 C0.67 1.34 0.34 0.68 0 0 Z " fill="#FF4E88" transform="translate(16,30)"/>
<path d="M0 0 C0.33 0 0.66 0 1 0 C1.36395147 6.3084922 1.36395147 6.3084922 -0.25 9.375 C-2.17954253 11.16671807 -3.41851492 11.64393309 -6 12 C-5.01621713 9.80540745 -4.22103594 8.20335306 -2.4375 6.5625 C-0.54736879 4.50800956 -0.3675753 2.72005723 0 0 Z " fill="#FF607C" transform="translate(29,42)"/>
<path d="M0 0 C1.2065625 0.0309375 1.2065625 0.0309375 2.4375 0.0625 C2.4375 1.0525 2.4375 2.0425 2.4375 3.0625 C0.4575 3.3925 -1.5225 3.7225 -3.5625 4.0625 C-3.5625 0.08689024 -3.5625 0.08689024 0 0 Z " fill="#293852" transform="translate(105.5625,29.9375)"/>
<path d="M0 0 C1.2065625 0.0309375 1.2065625 0.0309375 2.4375 0.0625 C2.4375 1.0525 2.4375 2.0425 2.4375 3.0625 C0.4575 3.3925 -1.5225 3.7225 -3.5625 4.0625 C-3.5625 0.08689024 -3.5625 0.08689024 0 0 Z " fill="#283851" transform="translate(158.5625,29.9375)"/>
<path d="M0 0 C1.98 0.495 1.98 0.495 4 1 C3.67 2.32 3.34 3.64 3 5 C1.68 4.34 0.36 3.68 -1 3 C-0.67 2.01 -0.34 1.02 0 0 Z " fill="#3D4B62" transform="translate(85,30)"/>
<path d="M0 0 C0 0.99 0 1.98 0 3 C-1.98 3 -3.96 3 -6 3 C-6.33 2.34 -6.66 1.68 -7 1 C-4.53721199 -0.231394 -2.7204945 -0.07159196 0 0 Z " fill="#2C3B54" transform="translate(160,49)"/>
<path d="M0 0 C0.99 0.33 1.98 0.66 3 1 C3.33 2.65 3.66 4.3 4 6 C2.68 5.34 1.36 4.68 0 4 C0 2.68 0 1.36 0 0 Z " fill="#FF8D48" transform="translate(13,43)"/>
</svg>
