<?xml version="1.0" encoding="UTF-8"?>
<svg version="1.1" xmlns="http://www.w3.org/2000/svg" width="74" height="76">
<path d="M0 0 C24.42 0 48.84 0 74 0 C74 25.08 74 50.16 74 76 C49.58 76 25.16 76 0 76 C0 50.92 0 25.84 0 0 Z " fill="#FCFDFE" transform="translate(0,0)"/>
<path d="M0 0 C24.42 0 48.84 0 74 0 C74 10.23 74 20.46 74 31 C73.01 29.02 73.01 29.02 72 27 C66.70499087 28.36157378 64.76254467 31.60343955 62 36 C59.35247996 33.42215154 57.05567935 31.08351902 55 28 C54.01 28 53.02 28 52 28 C51.34 29.32 50.68 30.64 50 32 C49.401875 31.525625 48.80375 31.05125 48.1875 30.5625 C44.10660099 27.64757214 39.86600708 27.45721643 35 28 C31.74719316 29.51797652 29.40109785 31.34615501 27 34 C24.75390625 32.09570312 24.75390625 32.09570312 22.5078125 30.19140625 C18.97941548 27.40342415 15.30910066 27.72356713 11 28 C9.68 28.33 8.36 28.66 7 29 C6.67 25.04 6.34 21.08 6 17 C4.68 17 3.36 17 2 17 C1.67 26.24 1.34 35.48 1 45 C0.67 45 0.34 45 0 45 C0 30.15 0 15.3 0 0 Z " fill="#FDFEFE" transform="translate(0,0)"/>
<path d="M0 0 C1.32 0.66 2.64 1.32 4 2 C4 5.96 4 9.92 4 14 C5.32 13.34 6.64 12.68 8 12 C14.20238007 11.39976967 16.97802431 12.0291355 22 16 C22.99 16.66 23.98 17.32 25 18 C25.78375 17.195625 26.5675 16.39125 27.375 15.5625 C30.97297306 12.05019297 32.86664223 11.72373991 37.89453125 11.76953125 C41.3260378 12.14515071 44.53829936 13.53829936 47 16 C47.66 14.68 48.32 13.36 49 12 C51.53910197 12.38520564 52.72751123 12.70097943 54.484375 14.62890625 C54.90203125 15.26699219 55.3196875 15.90507812 55.75 16.5625 C56.17796875 17.20316406 56.6059375 17.84382813 57.046875 18.50390625 C57.51867188 19.24447266 57.51867188 19.24447266 58 20 C60.06976841 18.00160291 61.89986889 16.15019666 63.5 13.75 C63.995 13.1725 64.49 12.595 65 12 C66.32 12 67.64 12 69 12 C69.71484375 13.703125 69.71484375 13.703125 70 16 C68.56640625 18.359375 68.56640625 18.359375 66.5625 20.75 C65.90378906 21.54921875 65.24507813 22.3484375 64.56640625 23.171875 C64.04949219 23.77515625 63.53257813 24.3784375 63 25 C65.15078722 28.85658398 67.23455278 32.54319097 70 36 C69.34 37.32 68.68 38.64 68 40 C63.7257442 38.4169423 61.73468206 35.49431596 59 32 C58.236875 32.763125 57.47375 33.52625 56.6875 34.3125 C54.79166667 36.20833333 52.89583333 38.10416667 51 40 C50.01 39.67 49.02 39.34 48 39 C48 37.35 48 35.7 48 34 C46.700625 35.2065625 46.700625 35.2065625 45.375 36.4375 C42.29102326 38.97979464 40.08684453 39.91659501 36 40 C30.95656262 39.02670507 27.79385939 37.44896308 24 34 C23.01 34.928125 23.01 34.928125 22 35.875 C18.40974893 38.41809451 15.40455057 39.72314254 11 40 C5.12260131 38.40612917 2.3624988 35.84595415 -1 31 C-2.79561374 25.72093788 -2.18441597 19.87691742 -2.1875 14.375 C-2.19974609 13.21742187 -2.21199219 12.05984375 -2.22460938 10.8671875 C-2.22654297 9.76375 -2.22847656 8.6603125 -2.23046875 7.5234375 C-2.23457764 6.51200684 -2.23868652 5.50057617 -2.24291992 4.45849609 C-2 2 -2 2 0 0 Z " fill="#0A87CF" transform="translate(3,15)"/>
<path d="M0 0 C2.57990385 0.29317089 3.71766051 0.69016956 5.484375 2.62890625 C5.90203125 3.26699219 6.3196875 3.90507812 6.75 4.5625 C7.17796875 5.20316406 7.6059375 5.84382813 8.046875 6.50390625 C8.36140625 6.99761719 8.6759375 7.49132813 9 8 C11.06976841 6.00160291 12.89986889 4.15019666 14.5 1.75 C14.995 1.1725 15.49 0.595 16 0 C17.32 0 18.64 0 20 0 C20.71484375 1.703125 20.71484375 1.703125 21 4 C19.56640625 6.359375 19.56640625 6.359375 17.5625 8.75 C16.57443359 9.94882812 16.57443359 9.94882812 15.56640625 11.171875 C15.04949219 11.77515625 14.53257813 12.3784375 14 13 C16.15078722 16.85658398 18.23455278 20.54319097 21 24 C20.34 25.32 19.68 26.64 19 28 C14.7257442 26.4169423 12.73468206 23.49431596 10 20 C9.236875 20.763125 8.47375 21.52625 7.6875 22.3125 C4.84375 25.15625 4.84375 25.15625 2 28 C1.01 27.67 0.02 27.34 -1 27 C-0.835 25.88625 -0.67 24.7725 -0.5 23.625 C0.7559787 15.11478663 0.7559787 15.11478663 -1 7 C-1.125 3.9375 -1.125 3.9375 -1 1 C-0.67 0.67 -0.34 0.34 0 0 Z " fill="#0D88D0" transform="translate(52,27)"/>
<path d="M0 0 C1.90625 0.41015625 1.90625 0.41015625 4.40625 1.91015625 C6.51761591 5.42909943 6.84862143 8.41122356 5.90625 12.41015625 C3.36392292 15.40112929 1.7487803 16.25218182 -2.09375 16.97265625 C-6.19764613 16.20317573 -7.63334272 14.73894257 -10.09375 11.41015625 C-10.80335213 7.62561157 -10.37176176 5.94301212 -8.59375 2.53515625 C-5.55267495 -0.04975755 -3.89338955 -0.28328767 0 0 Z " fill="#F7FBFD" transform="translate(17.09375,32.58984375)"/>
<path d="M0 0 C3 2.0625 3 2.0625 5 5 C5 8.65743868 4.81308469 10.93945475 2.5625 13.875 C-0.68436485 16.21274269 -3.02224969 16.39777503 -7 16 C-9.375 14.5 -9.375 14.5 -11 12 C-11.81157964 7.95866467 -11.63559176 5.01694681 -9.4375 1.5 C-6.00863886 -0.61006839 -3.95779649 -0.62491523 0 0 Z " fill="#F8FBFD" transform="translate(43,33)"/>
<path d="M0 0 C3.39417765 3.12621626 5.6062718 5.56541027 7 10 C5.35 11.98 3.7 13.96 2 16 C0.46701146 12.93402292 0.98182874 9.88592154 1.0625 6.5078125 C1.00405295 4.16262445 0.66654757 2.23918324 0 0 Z " fill="#D8EBF6" transform="translate(51,32)"/>
</svg>
