<?xml version="1.0" encoding="UTF-8"?>
<svg version="1.1" xmlns="http://www.w3.org/2000/svg" width="174" height="76">
<path d="M0 0 C57.42 0 114.84 0 174 0 C174 25.08 174 50.16 174 76 C116.58 76 59.16 76 0 76 C0 50.92 0 25.84 0 0 Z " fill="#FCFCFD" transform="translate(0,0)"/>
<path d="M0 0 C0.99 0.66 1.98 1.32 3 2 C3.33 1.67 3.66 1.34 4 1 C5.99958364 0.95919217 8.00045254 0.95745644 10 1 C10.09938095 5.16253275 10.17170617 9.32442479 10.21972656 13.48779297 C10.23975843 14.90197795 10.26699248 16.31608097 10.30175781 17.72998047 C10.35065489 19.77071419 10.37305123 21.8103469 10.390625 23.8515625 C10.41157227 25.07697754 10.43251953 26.30239258 10.45410156 27.56494141 C9.79971335 32.51507162 7.57687426 35.60864036 3.875 38.875 C-0.44560614 40.56567197 -4.42995517 40.79574263 -9 40 C-12.61884168 38.10337815 -14.68786858 35.93639425 -16 32 C-13 30 -13 30 -10 30 C-9.4225 30.680625 -8.845 31.36125 -8.25 32.0625 C-6.03691367 34.40282236 -6.03691367 34.40282236 -2.375 33.9375 C1.25516924 33.3249155 1.25516924 33.3249155 3 30 C3 28.68 3 27.36 3 26 C2.46375 26.33 1.9275 26.66 1.375 27 C-1.70340819 28.29617187 -3.67716638 28.39874003 -7 28 C-12.07057633 25.21615417 -15.1657459 22.50276231 -17 17 C-17.38773716 12.26960665 -17.48117872 9.94453601 -15.3125 5.6875 C-10.57690173 0.18396688 -7.00327132 -0.56477994 0 0 Z " fill="#4F83F3" transform="translate(124,26)"/>
<path d="M0 0 C2.6953125 1.65625 2.6953125 1.65625 4.6953125 4.65625 C3.7053125 5.64625 2.7153125 6.63625 1.6953125 7.65625 C0.5815625 7.16125 0.5815625 7.16125 -0.5546875 6.65625 C-6.16494917 5.16018022 -12.91771064 4.02764619 -18.34375 6.63671875 C-21.76349777 9.37420157 -23.99713004 12.45941102 -24.60546875 16.8046875 C-24.63197764 21.84137597 -24.20619202 25.35401916 -21.3046875 29.65625 C-16.94925656 33.58676085 -14.34061638 34.98840397 -8.39453125 34.859375 C-5.02715468 34.53207859 -3.06397058 33.61840686 -0.3046875 31.65625 C1.62260672 29.07804902 3.12074149 26.48121563 4.6953125 23.65625 C0.0753125 23.65625 -4.5446875 23.65625 -9.3046875 23.65625 C-9.3046875 21.67625 -9.3046875 19.69625 -9.3046875 17.65625 C-2.7046875 17.65625 3.8953125 17.65625 10.6953125 17.65625 C10.6953125 30.22928371 10.6953125 30.22928371 5.3046875 36.1953125 C-0.05263149 41.01689959 -5.70689641 42.19338007 -12.7109375 42.03515625 C-18.54898428 41.18230905 -23.3663879 38.03069049 -27.2421875 33.65625 C-31.82013332 26.99741971 -32.35726835 20.58819857 -31.3046875 12.65625 C-29.06816159 7.03204514 -25.08056847 2.42141332 -19.78125 -0.53515625 C-13.42886473 -2.60920002 -6.16828636 -2.50814481 0 0 Z " fill="#4E83F4" transform="translate(33.3046875,12.34375)"/>
<path d="M0 0 C3.68609396 2.31284327 7.03178226 5.06356452 9 9 C9.57425085 13.70697417 9.45554552 17.12144792 7.25 21.375 C3.46952757 25.78555117 0.56604986 27.75791982 -5.3125 28.3125 C-10.73778367 27.8527302 -13.42248935 25.4114569 -17.375 21.875 C-19.78436899 17.61227024 -19.75911491 13.78472426 -19 9 C-15.05210492 0.9579915 -8.69257534 -1.89656189 0 0 Z " fill="#F20C3A" transform="translate(65,26)"/>
<path d="M0 0 C3.28133541 2.11463838 4.93976587 3.35514469 6.8125 6.8125 C7.60317626 12.09712195 7.43749911 16.412502 5.25 21.3125 C1.77718343 24.87436315 -1.402758 26.69786225 -6.46484375 26.90625 C-11.47804373 26.57259276 -14.63725874 25.5779074 -18.1875 21.8125 C-21.05981453 17.11697872 -20.94418665 12.14791298 -20.1875 6.8125 C-18.53087966 3.34181194 -16.14254601 1.36542137 -12.8125 -0.5625 C-8.15130973 -1.67230721 -4.51165755 -1.6808136 0 0 Z " fill="#FBC40A" transform="translate(97.1875,27.1875)"/>
<path d="M0 0 C4.12025719 1.77920197 6.50055722 4.2971218 9 8 C9 8.99 9 9.98 9 11 C3.39 13.31 -2.22 15.62 -8 18 C-7.34 18.99 -6.68 19.98 -6 21 C-2.30741107 21.34835745 0.30137284 21.28580202 3.75 19.875 C4.4925 19.58625 5.235 19.2975 6 19 C6.99 19.66 7.98 20.32 9 21 C7.98601968 24.26726992 6.93743422 25.03702873 3.9375 26.8125 C-0.51327195 28.45956322 -4.51916614 28.64585989 -9 27 C-13.05793627 24.19295051 -15.50575295 21.10657734 -16.640625 16.26953125 C-16.94868746 11.19350213 -16.41684819 7.83334585 -13.125 3.875 C-9.14074501 -0.14775021 -5.582348 -0.5915783 0 0 Z " fill="#F10A39" transform="translate(163,26)"/>
<path d="M0 0 C1.98 0 3.96 0 6 0 C6 13.53 6 27.06 6 41 C4.02 41 2.04 41 0 41 C0 27.47 0 13.94 0 0 Z " fill="#00C34F" transform="translate(138,12)"/>
<path d="M0 0 C4.08078346 1.33552913 5.36305322 2.39099579 7.4375 6.125 C8 9.125 8 9.125 7.4375 12.125 C4.80538535 15.79400829 3.34895674 16.96509531 -1.125 17.75 C-4.5625 17.125 -4.5625 17.125 -7 15.0625 C-8.97393691 11.35149861 -9.22944827 9.27490033 -8.5625 5.125 C-5.91434712 1.27314127 -4.72054682 0.16563322 0 0 Z " fill="#FDF2F3" transform="translate(60.5625,30.875)"/>
<path d="M0 0 C2.81135401 1.99918507 4.65872562 3.51427962 5.453125 6.97265625 C5.63020914 10.35622826 5.23243449 12.62810482 3.4375 15.5 C0.05111671 17.58392818 -2.09385318 17.55802097 -6 17 C-8.4375 15.5625 -8.4375 15.5625 -10 13 C-10.60834968 9.87216437 -10.66441711 7.12161489 -10 4 C-7.07100191 0.56888795 -4.50617026 -1.01388831 0 0 Z " fill="#FEFBF5" transform="translate(93,31)"/>
<path d="M0 0 C3.375 1.0625 3.375 1.0625 5.3125 2.625 C6.85181792 6.15637641 7.05803974 9.27473417 6.375 13.0625 C4.8125 15.5625 4.8125 15.5625 2.375 17.0625 C-1.125 17.625 -1.125 17.625 -4.625 17.0625 C-7.81033648 14.36721529 -8.52600875 12.67844555 -9.1875 8.5625 C-8.625 5.0625 -8.625 5.0625 -6.5625 2.0625 C-3.625 0.0625 -3.625 0.0625 0 0 Z " fill="#F6F7FD" transform="translate(121.625,30.9375)"/>
<path d="M0 0 C0.66 1.32 1.32 2.64 2 4 C0.3767313 4.6708712 -1.24867578 5.33657029 -2.875 6 C-4.23238281 6.556875 -4.23238281 6.556875 -5.6171875 7.125 C-8 8 -8 8 -10 8 C-9.67372714 4.98197607 -9.38918764 3.40308719 -7.25 1.1875 C-4.62847443 -0.19608294 -2.92325122 -0.24360427 0 0 Z " fill="#FCE6E9" transform="translate(163,31)"/>
</svg>
