<?xml version="1.0" encoding="UTF-8"?>
<svg version="1.1" xmlns="http://www.w3.org/2000/svg" width="280" height="76">
<path d="M0 0 C92.4 0 184.8 0 280 0 C280 25.08 280 50.16 280 76 C187.6 76 95.2 76 0 76 C0 50.92 0 25.84 0 0 Z " fill="#FDFEFC" transform="translate(0,0)"/>
<path d="M0 0 C5.9589279 0.29067941 9.03642176 2.85206929 13 7 C18 13.05527638 18 13.05527638 18 16 C18.886875 16.226875 19.77375 16.45375 20.6875 16.6875 C24.55320011 18.2191925 26.41784273 19.75385944 29 23 C29.8125 26.3125 29.8125 26.3125 30 29 C26.54447362 31.30368425 25.18980138 31.24325164 21.125 31.1875 C19.58199219 31.17783203 19.58199219 31.17783203 18.0078125 31.16796875 C15.23760708 31.01326897 12.69911183 30.62248889 10 30 C11.04874998 32.62187494 11.64931313 33.79371361 14.125 35.25 C14.74375 35.4975 15.3625 35.745 16 36 C16 36.99 16 37.98 16 39 C12.12103838 39.36083364 10.54063103 39.43514205 7.4375 36.9375 C5.1485216 34.66122487 5.1485216 34.66122487 2.1875 35.25 C1.465625 35.4975 0.74375 35.745 0 36 C0.09539063 35.40832031 0.19078125 34.81664062 0.2890625 34.20703125 C1.2852503 27.83830098 1.2852503 27.83830098 -1 22 C-5.14266345 19.4412961 -9.28350594 19.6907217 -14 20 C-14.66 20.66 -15.32 21.32 -16 22 C-15.40832031 21.96519531 -14.81664062 21.93039063 -14.20703125 21.89453125 C-9.31503446 21.72694245 -5.9203919 21.69216934 -2 25 C-1.0354167 27.8937499 -0.92198697 29.63125005 -1 32.625 C-1.03774356 34.08284483 -1.04645715 35.54240683 -1 37 C0.64079242 38.64079242 2.77768765 38.60112342 5 39 C4.7890625 40.828125 4.7890625 40.828125 4 43 C-0.11337054 45.99440767 -4.61968017 47.78581244 -9.625 48.5625 C-15.76282498 47.53952917 -21.03031304 44.88576857 -25 40 C-27.63712606 36.08309218 -27.44334774 31.81401295 -27.625 27.25 C-27.66367187 26.45722656 -27.70234375 25.66445313 -27.7421875 24.84765625 C-27.836108 22.89880584 -27.91912822 20.94943549 -28 19 C-26.948125 18.5875 -25.89625 18.175 -24.8125 17.75 C-22.19668896 16.64993548 -20.67730184 15.72687145 -18.45703125 13.84765625 C-14.53849618 10.90096772 -10.97677169 11.4039935 -6.23046875 11.52734375 C-2.21798135 12.11441869 0.15013312 13.48473995 3.34375 15.88671875 C5.59064078 17.3970109 7.36576927 17.41159855 10 17 C9.0409375 16.2575 9.0409375 16.2575 8.0625 15.5 C5.41335099 13.33742938 2.78473901 11.16194918 0.1875 8.9375 C-0.60269531 8.26589844 -1.39289062 7.59429687 -2.20703125 6.90234375 C-4 5 -4 5 -4 2 C0.49885404 2.50976224 2.83195614 4.16125618 6.25 7.0625 C8.82122636 9.65836757 8.82122636 9.65836757 12 11 C11.38511719 10.45730469 10.77023438 9.91460937 10.13671875 9.35546875 C9.32847656 8.64003906 8.52023438 7.92460937 7.6875 7.1875 C6.88699219 6.47980469 6.08648437 5.77210937 5.26171875 5.04296875 C3.45016838 3.40662878 1.70318297 1.74727832 0 0 Z " fill="#F6FCF5" transform="translate(32,9)"/>
<path d="M0 0 C15 0 15 0 21 4 C22.72393401 7.44786802 22.50222927 11.22993228 22 15 C20.125 17.5625 20.125 17.5625 18 19 C17.34 19 16.68 19 16 19 C16.33 20.32 16.66 21.64 17 23 C18.98 23 20.96 23 23 23 C22.94199219 22.41992188 22.88398438 21.83984375 22.82421875 21.2421875 C22.57292445 16.89120624 22.50544546 13.95019754 25.375 10.5 C28.51129161 7.51305561 29.06977736 7.03445269 33.375 6.875 C36.25384645 6.97427057 38.27938903 7.29790685 41 8 C42.98 8 44.96 8 47 8 C47 15.26 47 22.52 47 30 C45.02 30 43.04 30 41 30 C41 29.34 41 28.68 41 28 C40.01 28.66 39.02 29.32 38 30 C34.93535679 30.54520806 32.06402832 30.55270563 29 30 C25.9375 27.5 25.9375 27.5 24 25 C23.67 26.65 23.34 28.3 23 30 C17.7046288 30.50432107 15.13295494 29.28757779 11 26 C10.34 25.01 9.68 24.02 9 23 C8.67 25.31 8.34 27.62 8 30 C5.36 30 2.72 30 0 30 C0 20.1 0 10.2 0 0 Z " fill="#23B616" transform="translate(157,21)"/>
<path d="M0 0 C4.97296444 3.48481418 9.39879754 7.79939239 12.75 12.875 C15.26181368 16.36363011 17.17936726 17.21161872 21 19 C24.40418427 22.40418427 25.89431214 25.1383584 26 30 C24.26182351 32.51545964 23.0770387 32.98071454 20.08203125 33.73046875 C19.00308594 33.88128906 17.92414062 34.03210937 16.8125 34.1875 C15.18248047 34.42533203 15.18248047 34.42533203 13.51953125 34.66796875 C12.68808594 34.77753906 11.85664062 34.88710938 11 35 C11.33 35.33 11.66 35.66 12 36 C12.04063832 37.66617115 12.042721 39.33388095 12 41 C11.05125 41.0825 10.1025 41.165 9.125 41.25 C8.09375 41.4975 7.0625 41.745 6 42 C4.87483915 43.83284443 4.87483915 43.83284443 4 46 C-2.23902527 51.7191065 -7.63379033 53.64919285 -16.03125 53.41015625 C-23.05399894 52.43990804 -27.40780308 48.02631638 -31.7734375 42.74609375 C-36.28314924 36.32621749 -36.35896842 28.72224963 -35.53564453 21.07226562 C-34.62888355 17.56424958 -32.61720141 16.06163617 -29.75 14 C-26.796875 12.3125 -26.796875 12.3125 -24 11 C-23.3296875 10.62101562 -22.659375 10.24203125 -21.96875 9.8515625 C-19.53553079 8.79909864 -17.3872246 8.58320194 -14.75 8.375 C-13.41195313 8.26285156 -13.41195313 8.26285156 -12.046875 8.1484375 C-11.37140625 8.09945313 -10.6959375 8.05046875 -10 8 C-10.66 7.01 -11.32 6.02 -12 5 C-11.9375 2.9375 -11.9375 2.9375 -11 1 C-7.0860072 -1.34839568 -4.3304078 -1.10414627 0 0 Z M-6 1 C-2.22975157 4.92734211 1.88470051 8.44406161 6 12 C3.25058813 12 -0.333908 7.56687749 -2.359375 5.84765625 C-5.03437033 3.97595094 -6.79278052 3.36340796 -10 3 C-9.47523318 6.97577571 -7.68084705 8.51986969 -4.6875 11.0625 C-3.90761719 11.73410156 -3.12773438 12.40570313 -2.32421875 13.09765625 C-0.25451625 14.79168165 1.84478817 16.41688102 4 18 C1.36576927 18.41159855 -0.40935922 18.3970109 -2.65625 16.88671875 C-3.2646875 16.42910156 -3.873125 15.97148437 -4.5 15.5 C-9.92232854 11.89198671 -15.71191346 11.94787572 -22 13 C-24.54524351 14.38184877 -25.93423665 15.88385218 -28 18 C-29.97824273 18.72869757 -31.97761288 19.40468935 -34 20 C-33.93963048 22.71059145 -33.8524809 25.41593977 -33.75 28.125 C-33.73582031 28.88554688 -33.72164062 29.64609375 -33.70703125 30.4296875 C-33.42691928 36.92828527 -31.41828853 40.76773366 -26.5625 45.25 C-21.70365037 48.56823877 -17.91563579 49.67884345 -12 49 C-8.44946292 47.67972621 -5.06966798 46.2346242 -2 44 C-1.15035008 41.92244162 -1.15035008 41.92244162 -1 40 C-1.804375 39.855625 -2.60875 39.71125 -3.4375 39.5625 C-6 39 -6 39 -7 38 C-6.99414352 36.58273282 -6.94530799 35.1655343 -6.875 33.75 C-6.82951642 29.66947349 -7.28596818 27.2166303 -10 24 C-12.78601223 23.07132926 -14.61066089 22.83657783 -17.5 22.8125 C-18.2734375 22.79832031 -19.046875 22.78414062 -19.84375 22.76953125 C-22.29680056 22.86338472 -22.29680056 22.86338472 -25 25 C-22.11077604 22.11077604 -20.06119448 20.70191656 -16 20.625 C-12.65014967 20.82093464 -9.90291062 21.20702579 -7 23 C-4.06396522 27.40405216 -5.20215812 32.05122403 -6 37 C-5.278125 36.7525 -4.55625 36.505 -3.8125 36.25 C0.0591661 35.9058519 1.04693801 37.62314523 4 40 C7.20980136 40.33513594 7.20980136 40.33513594 10 40 C10 39.01 10 38.02 10 37 C8.34467377 35.98133771 6.67739862 34.98189187 5 34 C4.67 33.01 4.34 32.02 4 31 C4.69867188 31.16113281 5.39734375 31.32226562 6.1171875 31.48828125 C9.16980587 32.03014169 12.02607856 32.1680832 15.125 32.1875 C16.67574219 32.20876953 16.67574219 32.20876953 18.2578125 32.23046875 C21.21720034 32.20408145 21.21720034 32.20408145 24 30 C23.73290484 26.17163599 23.23114937 24.29058777 20.8125 21.25 C18.13799496 18.8318738 18.13799496 18.8318738 14.8125 18 C13.884375 17.67 12.95625 17.34 12 17 C11.27544365 15.35767228 10.62225605 13.68375165 10 12 C6.69269962 7.56717855 3.1683952 3.23498171 -2 1 C-3.32 1 -4.64 1 -6 1 Z " fill="#20B417" transform="translate(38,8)"/>
<path d="M0 0 C0.78375 0.04125 1.5675 0.0825 2.375 0.125 C2.705 2.435 3.035 4.745 3.375 7.125 C4.035 6.795 4.695 6.465 5.375 6.125 C10.65225011 5.52531249 13.26207202 6.85335275 17.375 10.125 C20.07157104 14.16985657 19.9172677 17.37807196 19.375 22.125 C18.1421112 25.02228868 17.1504988 26.52183427 14.6875 28.4375 C11.19882678 29.47467312 8.01178234 29.24231556 4.375 29.125 C3.715 29.125 3.055 29.125 2.375 29.125 C0.04166667 29.125 -2.29166667 29.125 -4.625 29.125 C-4.6828304 24.66672074 -4.71853855 20.2085372 -4.75 15.75 C-4.76675781 14.47898437 -4.78351563 13.20796875 -4.80078125 11.8984375 C-4.80722656 10.68671875 -4.81367188 9.475 -4.8203125 8.2265625 C-4.83602295 6.54554443 -4.83602295 6.54554443 -4.85205078 4.83056641 C-4.54152747 1.13033055 -3.74071707 0.17812938 0 0 Z " fill="#22B516" transform="translate(236.625,21.875)"/>
<path d="M0 0 C0 2.31 0 4.62 0 7 C0.66 6.67 1.32 6.34 2 6 C9.0505676 5.42208462 9.0505676 5.42208462 12.875 7.75 C16.00215758 11.06110803 16.86822042 12.81398377 17.375 17.375 C16.92831385 21.69296607 15.7684289 23.69326548 13 27 C9.59075716 29.58632215 6.15821411 29.22681168 2 29 C1.01 28.67 0.02 28.34 -1 28 C-2.98 28 -4.96 28 -7 28 C-7 19.09 -7 10.18 -7 1 C-4 0 -4 0 0 0 Z " fill="#1DB210" transform="translate(214,22)"/>
<path d="M0 0 C1.98 0 3.96 0 6 0 C6 7.26 6 14.52 6 22 C4.02 22 2.04 22 0 22 C0 21.34 0 20.68 0 20 C-0.99 20.66 -1.98 21.32 -3 22 C-6.06526351 22.54531842 -8.93408329 22.54325893 -12 22 C-15.2132442 19.45618167 -17.68983837 17.21544023 -18.2734375 13.046875 C-18.46329043 8.75327801 -18.4342668 5.90417036 -15.625 2.5 C-10.83297723 -2.06383121 -6.1800056 -1.59484016 0 0 Z " fill="#19B40D" transform="translate(198,29)"/>
<path d="M0 0 C0.99 0.66 1.98 1.32 3 2 C3.33 1.67 3.66 1.34 4 1 C5.98 1 7.96 1 10 1 C10 8.26 10 15.52 10 23 C5 23 5 23 3 22 C2.34 22.33 1.68 22.66 1 23 C-2.05940837 23.42074378 -4.9459708 23.47999423 -8 23 C-11.28175318 20.47031526 -12.69243777 18.92268669 -14 15 C-14.57199211 7.90729783 -14.57199211 7.90729783 -12.1875 4.125 C-8.08082076 0.13565445 -5.64813565 -0.40343826 0 0 Z " fill="#17520E" transform="translate(102,28)"/>
<path d="M0 0 C1.65 0 3.3 0 5 0 C6.81115956 1.81115956 6.38199448 4.61278227 6.5625 7.0625 C6.64628906 8.16722656 6.73007813 9.27195312 6.81640625 10.41015625 C6.87699219 11.26480469 6.93757812 12.11945312 7 13 C7.680625 12.01 8.36125 11.02 9.0625 10 C10.421875 8.3359375 10.421875 8.3359375 12 7 C15.8125 6.625 15.8125 6.625 19 7 C17.34832443 10.5786304 15.21713508 13.74820188 13 17 C15.62948691 20.87952544 15.62948691 20.87952544 19.75 22.8125 C20.86375 22.9053125 20.86375 22.9053125 22 23 C22 24.98 22 26.96 22 29 C16.70122324 29.50464541 14.09283425 28.36521927 10 25 C8.125 22.25 8.125 22.25 7 20 C6.67 22.97 6.34 25.94 6 29 C4.02 29 2.04 29 0 29 C0 19.43 0 9.86 0 0 Z " fill="#16520D" transform="translate(134,22)"/>
<path d="M0 0 C0.74362793 0.01047363 1.48725586 0.02094727 2.25341797 0.03173828 C3.46191406 0.04140625 3.46191406 0.04140625 4.69482422 0.05126953 C5.95746094 0.07640625 5.95746094 0.07640625 7.24560547 0.10205078 C8.51984375 0.11558594 8.51984375 0.11558594 9.81982422 0.12939453 C11.9202043 0.15299431 14.02043991 0.18886595 16.12060547 0.22705078 C16.12060547 2.53705078 16.12060547 4.84705078 16.12060547 7.22705078 C14.14060547 7.22705078 12.16060547 7.22705078 10.12060547 7.22705078 C10.12060547 14.81705078 10.12060547 22.40705078 10.12060547 30.22705078 C5.12060547 30.22705078 5.12060547 30.22705078 3.32641602 29.01879883 C1.77470564 26.71306842 1.77479121 25.3246636 1.82763672 22.55908203 C1.83730469 21.66640625 1.84697266 20.77373047 1.85693359 19.85400391 C1.88207031 18.92523438 1.90720703 17.99646484 1.93310547 17.03955078 C1.94664063 16.09917969 1.96017578 15.15880859 1.97412109 14.18994141 C2.00947451 11.8684004 2.05881873 9.54801425 2.12060547 7.22705078 C0.14060547 7.22705078 -1.83939453 7.22705078 -3.87939453 7.22705078 C-4.00439453 4.85205078 -4.00439453 4.85205078 -3.87939453 2.22705078 C-1.87939453 0.22705078 -1.87939453 0.22705078 0 0 Z " fill="#215A1A" transform="translate(75.87939453125,20.77294921875)"/>
<path d="M0 0 C2.9375 1.8125 2.9375 1.8125 5 4 C5 4.99 5 5.98 5 7 C1.05272412 7.17942163 -1.5980513 7.09350689 -5 5 C-4.33772394 8.11103016 -4.33772394 8.11103016 -1.96875 9.1328125 C-1.1540625 9.46023437 -0.339375 9.78765625 0.5 10.125 C4.93582888 11.93582888 4.93582888 11.93582888 6 13 C5.65835411 19.14962594 5.65835411 19.14962594 3.5 21.9375 C-0.32333308 23.56241656 -3.92245865 23.82299 -8 23 C-10.5625 20.625 -10.5625 20.625 -12 18 C-12 17.34 -12 16.68 -12 16 C-9.69 16 -7.38 16 -5 16 C-5 16.66 -5 17.32 -5 18 C-3.68 18 -2.36 18 -1 18 C-1 17.01 -1 16.02 -1 15 C-1.62648438 14.81824219 -2.25296875 14.63648438 -2.8984375 14.44921875 C-3.71570313 14.19785156 -4.53296875 13.94648437 -5.375 13.6875 C-6.18710938 13.44386719 -6.99921875 13.20023438 -7.8359375 12.94921875 C-10 12 -10 12 -12 9 C-11.85978632 5.6348717 -11.60414348 3.69708863 -9.375 1.125 C-6.01275048 -0.46764451 -3.6795043 -0.45186895 0 0 Z " fill="#1C5514" transform="translate(126,28)"/>
<path d="M0 0 C0 2.31 0 4.62 0 7 C1.32 7 2.64 7 4 7 C4 8.98 4 10.96 4 13 C2.68 13 1.36 13 0 13 C0.33 15.97 0.66 18.94 1 22 C1.99 22.33 2.98 22.66 4 23 C4 25.31 4 27.62 4 30 C0.48346139 29.68031467 -1.53431968 29.37757864 -4.3125 27.125 C-7.81879921 22.70966026 -7.21810213 17.86681654 -7.25 12.5 C-7.2809375 11.19869141 -7.2809375 11.19869141 -7.3125 9.87109375 C-7.31765625 9.03707031 -7.3228125 8.20304687 -7.328125 7.34375 C-7.34214355 6.20196289 -7.34214355 6.20196289 -7.35644531 5.03710938 C-6.55418986 0.45216453 -4.38802233 0 0 0 Z " fill="#31B623" transform="translate(274,21)"/>
<path d="M0 0 C4.97296444 3.48481418 9.39879754 7.79939239 12.75 12.875 C15.26181368 16.36363011 17.17936726 17.21161872 21 19 C24.40418427 22.40418427 25.89431214 25.1383584 26 30 C24.26182351 32.51545964 23.0770387 32.98071454 20.08203125 33.73046875 C19.00308594 33.88128906 17.92414062 34.03210937 16.8125 34.1875 C15.18248047 34.42533203 15.18248047 34.42533203 13.51953125 34.66796875 C12.68808594 34.77753906 11.85664062 34.88710938 11 35 C11.33 35.33 11.66 35.66 12 36 C12.04063832 37.66617115 12.042721 39.33388095 12 41 C9.03 41.495 9.03 41.495 6 42 C6 41.34 6 40.68 6 40 C7.32 40 8.64 40 10 40 C10 39.01 10 38.02 10 37 C9.195625 36.7525 8.39125 36.505 7.5625 36.25 C5 35 5 35 4.1875 32.875 C4.125625 32.25625 4.06375 31.6375 4 31 C5.9375 30.4375 5.9375 30.4375 8 30 C8.33 30.33 8.66 30.66 9 31 C10.97712807 31.09900199 12.95790038 31.12970773 14.9375 31.125 C16.01902344 31.12757812 17.10054687 31.13015625 18.21484375 31.1328125 C20.95659663 31.19007789 20.95659663 31.19007789 23 30 C22.69455639 26.64012024 22.39734591 24.51507804 20.3125 21.8125 C18.03341938 19.87207403 18.03341938 19.87207403 15.10546875 18.7265625 C11.55508924 16.75264081 10.19964099 14.93986543 8 11.5625 C5.00153318 7.22819614 2.74369216 4.31668687 -2 2 C-2.99 2 -3.98 2 -5 2 C-4.22076172 2.56267578 -4.22076172 2.56267578 -3.42578125 3.13671875 C0.72252449 6.18085439 4.47321686 9.25279291 8 13 C7.67 13.66 7.34 14.32 7 15 C6.443125 14.46890625 5.88625 13.9378125 5.3125 13.390625 C0.45688564 8.89590089 -3.93350581 5.64719747 -10 3 C-9.01 4.98 -8.02 6.96 -7 9 C-8.94090826 10.94090826 -12.47293902 10.39919435 -15.0625 10.5625 C-16.99802734 10.68818359 -16.99802734 10.68818359 -18.97265625 10.81640625 C-19.97167969 10.87699219 -20.97070312 10.93757813 -22 11 C-19.50494038 8.50494038 -18.32671112 8.64051624 -14.875 8.375 C-13.96492188 8.30023438 -13.05484375 8.22546875 -12.1171875 8.1484375 C-11.06917969 8.07496094 -11.06917969 8.07496094 -10 8 C-10.66 7.01 -11.32 6.02 -12 5 C-11.9375 2.9375 -11.9375 2.9375 -11 1 C-7.0860072 -1.34839568 -4.3304078 -1.10414627 0 0 Z " fill="#5FBB53" transform="translate(38,8)"/>
<path d="M0 0 C0.66 0.66 1.32 1.32 2 2 C3.98821313 2.39764263 5.98944339 2.73775349 8 3 C8.33 2.01 8.66 1.02 9 0 C10.5547669 3.10953379 10.28644437 5.56266761 10 9 C8.3718054 12.08193978 6.96990938 14.26420667 4.1875 16.375 C1.09681682 17.25805234 -1.8072254 17.12279902 -5 17 C-5 16.67 -5 16.34 -5 16 C-3.35 16 -1.7 16 0 16 C-0.33 15.01 -0.66 14.02 -1 13 C-1.969375 12.87625 -2.93875 12.7525 -3.9375 12.625 C-4.948125 12.41875 -5.95875 12.2125 -7 12 C-8.52491998 8.95016004 -8.23562548 6.3576631 -8 3 C-5.94362059 -0.35514536 -3.76397853 -0.48256135 0 0 Z " fill="#17B40A" transform="translate(221,34)"/>
<path d="M0 0 C3.63 0 7.26 0 11 0 C11 0.66 11 1.32 11 2 C9.35 2 7.7 2 6 2 C5.67 2.66 5.34 3.32 5 4 C5.33 4 5.66 4 6 4 C6.33 7.3 6.66 10.6 7 14 C8.65 14.33 10.3 14.66 12 15 C12 15.66 12 16.32 12 17 C11.01 17.33 10.02 17.66 9 18 C9.33 18.99 9.66 19.98 10 21 C8.68 20.67 7.36 20.34 6 20 C6 22.64 6 25.28 6 28 C4.02 28 2.04 28 0 28 C0 18.76 0 9.52 0 0 Z " fill="#04B400" transform="translate(158,22)"/>
<path d="M0 0 C1.65 0.33 3.3 0.66 5 1 C7.42627852 10.09854443 6 20.62406589 6 30 C3.69 30 1.38 30 -1 30 C-1.0580476 26.72924117 -1.09361165 23.45861476 -1.125 20.1875 C-1.14175781 19.25873047 -1.15851563 18.32996094 -1.17578125 17.37304688 C-1.18222656 16.48037109 -1.18867188 15.58769531 -1.1953125 14.66796875 C-1.20578613 13.84578857 -1.21625977 13.0236084 -1.22705078 12.17651367 C-1 10 -1 10 1 7 C0.34 6.34 -0.32 5.68 -1 5 C-0.625 2.375 -0.625 2.375 0 0 Z " fill="#08B400" transform="translate(259,21)"/>
<path d="M0 0 C15 0 15 0 20 4 C19.01 4.495 19.01 4.495 18 5 C17.4030274 7.01201876 17.04564595 9.02766096 16.66015625 11.08984375 C16 13 16 13 13 15 C9.8125 15.125 9.8125 15.125 7 15 C6.95101562 14.36191406 6.90203125 13.72382812 6.8515625 13.06640625 C6.77679688 12.24011719 6.70203125 11.41382813 6.625 10.5625 C6.52058594 9.32693359 6.52058594 9.32693359 6.4140625 8.06640625 C6.27742187 7.38449219 6.14078125 6.70257812 6 6 C5.34 5.67 4.68 5.34 4 5 C5.1875 3.4375 5.1875 3.4375 7 2 C9.6875 2.3125 9.6875 2.3125 12 3 C12 2.34 12 1.68 12 1 C8.37 1 4.74 1 1 1 C1 10.24 1 19.48 1 29 C2.98 29 4.96 29 7 29 C7 26.36 7 23.72 7 21 C7.66 21.33 8.32 21.66 9 22 C8.67 24.64 8.34 27.28 8 30 C5.36 30 2.72 30 0 30 C0 20.1 0 10.2 0 0 Z " fill="#5BC44F" transform="translate(157,21)"/>
<path d="M0 0 C3.13109512 1.32201794 4.67315518 2.61868104 6.875 5.1875 C8.46809289 9.17023222 7.78095668 11.81123235 7 16 C7.556875 15.7525 8.11375 15.505 8.6875 15.25 C11 15 11 15 13.625 16.875 C14.800625 17.926875 14.800625 17.926875 16 19 C16.66 19.33 17.32 19.66 18 20 C17.84518205 22.70931419 17.51827919 24.46584039 15.59765625 26.4453125 C14.10228292 27.67679642 12.5537076 28.8429837 11 30 C10.71125 29.360625 10.4225 28.72125 10.125 28.0625 C9.17176549 25.84793921 9.17176549 25.84793921 7 25 C7.99 24.34 8.98 23.68 10 23 C10 22.01 10 21.02 10 20 C7.69 20 5.38 20 3 20 C3.33 19.34 3.66 18.68 4 18 C4.19758231 15.92435324 4.19758231 15.92435324 4.1875 13.625 C4.20876953 12.46871094 4.20876953 12.46871094 4.23046875 11.2890625 C3.97154607 8.71738974 3.42653788 7.15165514 2 5 C-2.03266611 3.65577796 -5.78005323 3.54296605 -10 4 C-12.5189267 5.31763329 -12.5189267 5.31763329 -14 7 C-11.25972299 0.37766389 -6.92818437 -1.00748498 0 0 Z " fill="#20B413" transform="translate(26,28)"/>
<path d="M0 0 C0.33 0 0.66 0 1 0 C1 9.57 1 19.14 1 29 C0.67 29 0.34 29 0 29 C0 27.35 0 25.7 0 24 C-0.721875 24.12375 -1.44375 24.2475 -2.1875 24.375 C-5.45013736 23.93998169 -5.8041996 23.44438849 -7.8125 21 C-8.534375 20.01 -9.25625 19.02 -10 18 C-7.75421558 14.59260295 -5.48862878 11.23521742 -3 8 C-5.31 8 -7.62 8 -10 8 C-10 7.67 -10 7.34 -10 7 C-3.84765625 6.90234375 -3.84765625 6.90234375 -2 7 C-1.67 7.33 -1.34 7.66 -1 8 C-0.67 5.36 -0.34 2.72 0 0 Z " fill="#F4F7F3" transform="translate(156,21)"/>
<path d="M0 0 C1.65 0 3.3 0 5 0 C5.19585135 2.39541268 5.38192107 4.79092774 5.5625 7.1875 C5.61857422 7.86103516 5.67464844 8.53457031 5.73242188 9.22851562 C6.00963763 13.017131 5.96511161 16.31827794 5 20 C4.34 20 3.68 20 3 20 C2.01 22.475 2.01 22.475 1 25 C0.67 25 0.34 25 0 25 C0 16.75 0 8.5 0 0 Z " fill="#0EB304" transform="translate(233,23)"/>
<path d="M0 0 C0.515625 0.268125 1.03125 0.53625 1.5625 0.8125 C2.366875 1.204375 3.17125 1.59625 4 2 C5.093125 2.53625 6.18625 3.0725 7.3125 3.625 C13.20299524 5.82145585 17.33138273 5.45129396 23 3 C24.32 3 25.64 3 27 3 C27.33 4.32 27.66 5.64 28 7 C22.46320327 10.80591512 17.54481433 10.92407353 11 10 C6.67499247 8.20250483 3.09700176 5.51119044 0 2 C0 1.34 0 0.68 0 0 Z " fill="#2CB720" transform="translate(8,51)"/>
<path d="M0 0 C2 2 2 2 2.25 5.5 C2 9 2 9 0 11 C-3.13704316 11.333728 -5.16554166 11.52849028 -7.875 9.8125 C-9.40659584 7.34492892 -9.42822025 5.85480169 -9 3 C-6.73157826 -0.65467947 -4.03373275 -0.4291205 0 0 Z " fill="#F0FAEE" transform="translate(195,34)"/>
<path d="M0 0 C3.0625 0.3125 3.0625 0.3125 4.9375 1.5 C6.46909584 3.96757108 6.49072025 5.45769831 6.0625 8.3125 C4.9375 10.125 4.9375 10.125 3.0625 11.3125 C0 11.625 0 11.625 -2.9375 11.3125 C-4.9375 9.3125 -4.9375 9.3125 -5.1875 5.8125 C-4.87458101 1.43163414 -4.40975115 0.46912246 0 0 Z " fill="#F0F5F0" transform="translate(99.9375,33.6875)"/>
<path d="M0 0 C1.65 0 3.3 0 5 0 C5 6.6 5 13.2 5 20 C3.68 20 2.36 20 1 20 C0.855625 19.38125 0.71125 18.7625 0.5625 18.125 C0.06847775 15.96741678 0.06847775 15.96741678 -1 14 C-1.31658385 9.26055347 -1.19110347 4.61552596 0 0 Z " fill="#09B400" transform="translate(198,30)"/>
<path d="M0 0 C1.8125 1.1875 1.8125 1.1875 3 3 C3.42822025 5.85480169 3.40659584 7.34492892 1.875 9.8125 C-0.85987361 11.54458662 -2.83740129 11.40373601 -6 11 C-8.15502531 7.76746204 -8.46856135 6.74849077 -8 3 C-5.85607122 -0.27231235 -3.76836426 -0.56525464 0 0 Z " fill="#ECF9EA" transform="translate(221,34)"/>
<path d="M0 0 C2.4375 0.6875 2.4375 0.6875 4.4375 1.6875 C4.5625 5.0625 4.5625 5.0625 4.4375 8.6875 C2.4375 10.6875 2.4375 10.6875 -0.5625 10.9375 C-3.5625 10.6875 -3.5625 10.6875 -5.5625 8.6875 C-5.875 5.1875 -5.875 5.1875 -5.5625 1.6875 C-2.5625 -0.3125 -2.5625 -0.3125 0 0 Z " fill="#EFF9ED" transform="translate(244.5625,34.3125)"/>
<path d="M0 0 C1.65 0.33 3.3 0.66 5 1 C7.42627852 10.09854443 6 20.62406589 6 30 C3.69 30 1.38 30 -1 30 C-1 23.4 -1 16.8 -1 10 C-0.67 10 -0.34 10 0 10 C0 16.27 0 22.54 0 29 C1.65 29 3.3 29 5 29 C5 22.07 5 15.14 5 8 C3.68 7.67 2.36 7.34 1 7 C0.34 6.34 -0.32 5.68 -1 5 C-0.625 2.375 -0.625 2.375 0 0 Z " fill="#84CE7A" transform="translate(259,21)"/>
<path d="M0 0 C1.32 0 2.64 0 4 0 C4 3.3 4 6.6 4 10 C3.01 10.33 2.02 10.66 1 11 C1.33 12.32 1.66 13.64 2 15 C2.66 14.01 3.32 13.02 4 12 C4 14.97 4 17.94 4 21 C1.525 20.01 1.525 20.01 -1 19 C-1.02683987 16.02077407 -1.04676037 13.04178705 -1.0625 10.0625 C-1.07087891 9.21236328 -1.07925781 8.36222656 -1.08789062 7.48632812 C-1.09111328 6.67744141 -1.09433594 5.86855469 -1.09765625 5.03515625 C-1.10289307 4.2862915 -1.10812988 3.53742676 -1.11352539 2.76586914 C-1 1 -1 1 0 0 Z " fill="#01B400" transform="translate(269,22)"/>
<path d="M0 0 C0.33 0 0.66 0 1 0 C1.33 7.59 1.66 15.18 2 23 C2.66 21.68 3.32 20.36 4 19 C4.66 19 5.32 19 6 19 C6 17.35 6 15.7 6 14 C6.33 14 6.66 14 7 14 C7.66 16.31 8.32 18.62 9 21 C8.34 21 7.68 21 7 21 C6.67 21.66 6.34 22.32 6 23 C5.34 22.67 4.68 22.34 4 22 C4 22.66 4 23.32 4 24 C5.98 23.67 7.96 23.34 10 23 C10 23.99 10 24.98 10 26 C10.66 26 11.32 26 12 26 C12.33 25.34 12.66 24.68 13 24 C14.32 24.99 15.64 25.98 17 27 C11.33333333 27 5.66666667 27 0 27 C0 18.09 0 9.18 0 0 Z " fill="#53C146" transform="translate(232,24)"/>
<path d="M0 0 C-1.485 2.475 -1.485 2.475 -3 5 C-2.01 5.33 -1.02 5.66 0 6 C-1.98 6.66 -3.96 7.32 -6 8 C-6.33 9.98 -6.66 11.96 -7 14 C-7.66 14 -8.32 14 -9 14 C-9 12.68 -9 11.36 -9 10 C-9.99 10 -10.98 10 -12 10 C-12.33 11.65 -12.66 13.3 -13 15 C-13.33 15 -13.66 15 -14 15 C-14.48970976 7.776781 -14.48970976 7.776781 -12.1875 4.125 C-8.05124688 0.10692554 -5.65286871 -0.2133158 0 0 Z " fill="#295E21" transform="translate(102,28)"/>
<path d="M0 0 C3.13109512 1.32201794 4.67315518 2.61868104 6.875 5.1875 C8.49358877 9.23397192 7.91972341 11.75512273 7 16 C6.34 16.33 5.68 16.66 5 17 C4.90203125 16.22914062 4.8040625 15.45828125 4.703125 14.6640625 C4.55359375 13.66117188 4.4040625 12.65828125 4.25 11.625 C4.11078125 10.62726562 3.9715625 9.62953125 3.828125 8.6015625 C3.25246893 5.91575069 3.25246893 5.91575069 1.203125 4.66796875 C-2.54065208 3.5328874 -6.13212466 3.51030569 -10 4 C-12.5189267 5.31763329 -12.5189267 5.31763329 -14 7 C-11.25972299 0.37766389 -6.92818437 -1.00748498 0 0 Z " fill="#42B737" transform="translate(26,28)"/>
<path d="M0 0 C0.33 0 0.66 0 1 0 C1 9.57 1 19.14 1 29 C0.67 29 0.34 29 0 29 C0 25.7 0 22.4 0 19 C-0.680625 18.731875 -1.36125 18.46375 -2.0625 18.1875 C-5.39710809 16.83946694 -8.69743237 15.42463702 -12 14 C-12 13.01 -12 12.02 -12 11 C-7.05 11.99 -7.05 11.99 -2 13 C-0.71553081 10.43106162 -0.67022856 8.23423663 -0.4375 5.375 C-0.35371094 4.37210938 -0.26992187 3.36921875 -0.18359375 2.3359375 C-0.12300781 1.56507812 -0.06242188 0.79421875 0 0 Z " fill="#D1DACD" transform="translate(133,22)"/>
<path d="M0 0 C3.63 0 7.26 0 11 0 C11 0.66 11 1.32 11 2 C10.21625 1.95875 9.4325 1.9175 8.625 1.875 C5.83883881 1.71271266 5.83883881 1.71271266 4 4 C4.33 4.99 4.66 5.98 5 7 C4.34 7 3.68 7 3 7 C3.33 8.32 3.66 9.64 4 11 C3.01 11.495 3.01 11.495 2 12 C2 17.28 2 22.56 2 28 C1.34 28 0.68 28 0 28 C0 18.76 0 9.52 0 0 Z " fill="#1AB009" transform="translate(158,22)"/>
<path d="M0 0 C3.76873037 6.22659801 2.52153787 15.15307959 1 22 C0.67 22 0.34 22 0 22 C0 19.69 0 17.38 0 15 C-1.32 14.67 -2.64 14.34 -4 14 C-4 11.03 -4 8.06 -4 5 C-2.68 5 -1.36 5 0 5 C0 3.35 0 1.7 0 0 Z " fill="#F5FCF3" transform="translate(278,29)"/>
<path d="M0 0 C3 2 3 2 3.6875 4.625 C3.790625 5.40875 3.89375 6.1925 4 7 C5.98 7 7.96 7 10 7 C10.33 8.32 10.66 9.64 11 11 C6.71 11 2.42 11 -2 11 C-2 8.69 -2 6.38 -2 4 C-1.01 4 -0.02 4 1 4 C0.67 2.68 0.34 1.36 0 0 Z " fill="#10B405" transform="translate(210,39)"/>
<path d="M0 0 C0.33 0 0.66 0 1 0 C1.04125 1.2375 1.0825 2.475 1.125 3.75 C1.57534272 7.39134254 1.79172289 7.82012431 4.75 10.375 C7.47201762 11.73600881 10.13138565 12.98754788 13 14 C13 14.99 13 15.98 13 17 C11.68 17 10.36 17 9 17 C9 16.34 9 15.68 9 15 C6.36 15 3.72 15 1 15 C1 17.31 1 19.62 1 22 C0.67 22 0.34 22 0 22 C0 14.74 0 7.48 0 0 Z " fill="#E4EBE3" transform="translate(112,29)"/>
<path d="M0 0 C4.32285812 -0.38814395 6.18153051 0.44742572 9.5 3.1875 C10.27214844 3.82171875 11.04429688 4.4559375 11.83984375 5.109375 C14.35453632 7.31029942 16.71243765 9.56485298 19 12 C18.67 12.66 18.34 13.32 18 14 C17.443125 13.46890625 16.88625 12.9378125 16.3125 12.390625 C11.45688564 7.89590089 7.06649419 4.64719747 1 2 C1.99 3.98 2.98 5.96 4 8 C2.05909174 9.94090826 -1.47293902 9.39919435 -4.0625 9.5625 C-5.99802734 9.68818359 -5.99802734 9.68818359 -7.97265625 9.81640625 C-8.97167969 9.87699219 -9.97070312 9.93757813 -11 10 C-8.50494038 7.50494038 -7.32671112 7.64051624 -3.875 7.375 C-2.96492188 7.30023437 -2.05484375 7.22546875 -1.1171875 7.1484375 C-0.06917969 7.07496094 -0.06917969 7.07496094 1 7 C0.34 6.01 -0.32 5.02 -1 4 C-0.625 1.8125 -0.625 1.8125 0 0 Z " fill="#42B434" transform="translate(27,9)"/>
<path d="M0 0 C0.99 0 1.98 0 3 0 C4.16343227 2.32686453 4.19895988 3.84721413 4.25 6.4375 C4.27578125 7.21996094 4.3015625 8.00242187 4.328125 8.80859375 C4 11 4 11 2.671875 12.78515625 C1 14 1 14 -2 14 C-2.3690205 4.58997722 -2.3690205 4.58997722 0 0 Z " fill="#0BB403" transform="translate(175,25)"/>
<path d="M0 0 C1.98 0 3.96 0 6 0 C6 7.26 6 14.52 6 22 C4.02 22 2.04 22 0 22 C0 21.34 0 20.68 0 20 C-0.99 20.33 -1.98 20.66 -3 21 C-3.33 19.68 -3.66 18.36 -4 17 C-5.32 16.67 -6.64 16.34 -8 16 C-6.02 15.34 -4.04 14.68 -2 14 C-1.67 12.02 -1.34 10.04 -1 8 C-0.67 8 -0.34 8 0 8 C-0.09765625 10.97851562 -0.09765625 10.97851562 -0.1953125 13.95703125 C-0.13254462 16.31359719 -0.13254462 16.31359719 2 19 C1.67 19.66 1.34 20.32 1 21 C2.32 21 3.64 21 5 21 C5 14.4 5 7.8 5 1 C3.35 1 1.7 1 0 1 C0 0.67 0 0.34 0 0 Z " fill="#45B938" transform="translate(198,29)"/>
<path d="M0 0 C0.66 0.99 1.32 1.98 2 3 C0.02 3.66 -1.96 4.32 -4 5 C-3.91249004 7.70979124 -3.80555107 10.41650748 -3.6875 13.125 C-3.66494141 13.88554688 -3.64238281 14.64609375 -3.61914062 15.4296875 C-3.38777001 20.30950413 -2.55683672 23.70890138 0 28 C-0.99 28 -1.98 28 -3 28 C-6.10218666 22.85450639 -6.54820503 18.71687791 -6.5625 12.875 C-6.59923828 12.07707031 -6.63597656 11.27914062 -6.67382812 10.45703125 C-6.69121123 8.14314627 -6.63043577 6.22833272 -6 4 C-2.96484375 1.4453125 -2.96484375 1.4453125 0 0 Z " fill="#55BA48" transform="translate(9,23)"/>
<path d="M0 0 C-0.33 2.31 -0.66 4.62 -1 7 C-5.67461851 7.32613618 -8.16674383 6.70582788 -12 4 C-7.99899414 0.12023674 -5.51903037 -0.43286513 0 0 Z " fill="#5AC04B" transform="translate(181,44)"/>
<path d="M0 0 C3.3 0.33 6.6 0.66 10 1 C10 1.66 10 2.32 10 3 C9.01 3.33 8.02 3.66 7 4 C7.33 4.99 7.66 5.98 8 7 C6.35 6.67 4.7 6.34 3 6 C3 7.65 3 9.3 3 11 C2.34 10.67 1.68 10.34 1 10 C0.39892255 6.68273295 0.25566515 3.36625785 0 0 Z " fill="#10B406" transform="translate(160,36)"/>
<path d="M0 0 C0.33 0 0.66 0 1 0 C1 2.31 1 4.62 1 7 C1.66 6.67 2.32 6.34 3 6 C10.07246377 5.42028986 10.07246377 5.42028986 14 7.875 C16 10 16 10 16 12 C13 13 13 13 9.8125 11.5625 C8.884375 11.046875 7.95625 10.53125 7 10 C7 9.01 7 8.02 7 7 C6.01 7.33 5.02 7.66 4 8 C4.33 8.66 4.66 9.32 5 10 C3.35 9.67 1.7 9.34 0 9 C0 6.03 0 3.06 0 0 Z " fill="#45BE38" transform="translate(213,22)"/>
<path d="M0 0 C4 2.66666667 8 5.33333333 12 8 C11.67 8.66 11.34 9.32 11 10 C5.63283335 10.83861979 2.20372761 7.92070405 -2 5 C-1.34 4.67 -0.68 4.34 0 4 C0 2.68 0 1.36 0 0 Z " fill="#30B624" transform="translate(31,17)"/>
<path d="M0 0 C0.515625 0.268125 1.03125 0.53625 1.5625 0.8125 C7.71257077 3.82910844 7.71257077 3.82910844 14.3125 5.5 C15.6428125 5.7475 15.6428125 5.7475 17 6 C17.99 7.485 17.99 7.485 19 9 C11.13804878 9.55934831 7.19935136 8.63943785 1.125 3.375 C0 2 0 2 0 0 Z " fill="#22B318" transform="translate(8,51)"/>
<path d="M0 0 C7.4422658 -0.36601307 7.4422658 -0.36601307 10 1.3125 C11 3 11 3 11 6 C7.4588979 6.08047959 4.40590348 5.97311528 1 5 C0.34 5 -0.32 5 -1 5 C-0.67 3.35 -0.34 1.7 0 0 Z " fill="#185211" transform="translate(120,29)"/>
<path d="M0 0 C6.93596638 0.33833982 10.48776527 4.3307506 15 9.125 C16 11 16 11 15.6875 13.25 C15.460625 13.8275 15.23375 14.405 15 15 C13 14 13 14 12.12109375 12.16015625 C10.79371241 9.60251903 9.26995952 8.27499424 7.0625 6.4375 C4.60267986 4.3730902 2.23631078 2.30641457 0 0 Z " fill="#DFF5DB" transform="translate(32,9)"/>
<path d="M0 0 C0.99 0 1.98 0 3 0 C3 0.99 3 1.98 3 3 C5.98241547 3.77321882 8.97580475 4.41196203 12 5 C12 5.99 12 6.98 12 8 C9.125 8.125 9.125 8.125 6 8 C5.34 7.34 4.68 6.68 4 6 C1.57284794 5.32059533 1.57284794 5.32059533 -1.125 4.875 C-2.49011719 4.62363281 -2.49011719 4.62363281 -3.8828125 4.3671875 C-4.58148438 4.24601562 -5.28015625 4.12484375 -6 4 C-6 3.67 -6 3.34 -6 3 C-5.195625 2.87625 -4.39125 2.7525 -3.5625 2.625 C-2.716875 2.41875 -1.87125 2.2125 -1 2 C-0.67 1.34 -0.34 0.68 0 0 Z " fill="#0CB406" transform="translate(217,29)"/>
<path d="M0 0 C2.375 -0.125 2.375 -0.125 5 0 C5.66 0.66 6.32 1.32 7 2 C6.44444444 6.55555556 6.44444444 6.55555556 5 8 C3.33382885 8.04063832 1.66611905 8.042721 0 8 C0 5.36 0 2.72 0 0 Z " fill="#F4FCF2" transform="translate(165,28)"/>
<path d="M0 0 C-0.33 2.64 -0.66 5.28 -1 8 C-1.99 8 -2.98 8 -4 8 C-4.33 8.66 -4.66 9.32 -5 10 C-6 9 -6 9 -6.09765625 6.93359375 C-6.08605469 6.10988281 -6.07445312 5.28617188 -6.0625 4.4375 C-6.05347656 3.61121094 -6.04445312 2.78492188 -6.03515625 1.93359375 C-6.02355469 1.29550781 -6.01195312 0.65742187 -6 0 C-3 -1 -3 -1 0 0 Z " fill="#11B406" transform="translate(187,33)"/>
<path d="M0 0 C0.33 0 0.66 0 1 0 C2.2063366 5.22745859 1.75612577 9.76528314 1 15 C-0.98 15 -2.96 15 -5 15 C-5.33 13.68 -5.66 12.36 -6 11 C-5.195625 10.484375 -4.39125 9.96875 -3.5625 9.4375 C-0.33552922 6.36794243 -0.25103743 4.35131541 0 0 Z " fill="#DEF4DA" transform="translate(179,29)"/>
<path d="M0 0 C1.32 0 2.64 0 4 0 C4 6.27 4 12.54 4 19 C2.68 19 1.36 19 0 19 C-0.125 13.25 -0.125 13.25 1 11 C1.66 11 2.32 11 3 11 C3 7.7 3 4.4 3 1 C2.34 1 1.68 1 1 1 C1 1.66 1 2.32 1 3 C0.34 3 -0.32 3 -1 3 C-0.67 2.01 -0.34 1.02 0 0 Z " fill="#19B10B" transform="translate(260,29)"/>
<path d="M0 0 C1.32 0.33 2.64 0.66 4 1 C4 3.31 4 5.62 4 8 C-1.53846154 7.50769231 -1.53846154 7.50769231 -3.875 4.9375 C-4.431875 3.9784375 -4.431875 3.9784375 -5 3 C-4.360625 2.87625 -3.72125 2.7525 -3.0625 2.625 C-2.0415625 2.315625 -2.0415625 2.315625 -1 2 C-0.67 1.34 -0.34 0.68 0 0 Z " fill="#29B51C" transform="translate(274,43)"/>
<path d="M0 0 C1.98 0 3.96 0 6 0 C5.38722388 2.96175123 4.74627478 4.38058783 3 7 C2.60986284 8.9896995 2.26797351 10.99019869 2 13 C-0.20914 9.68629 -0.22481553 8.6553979 -0.125 4.8125 C-0.10695313 3.91144531 -0.08890625 3.01039062 -0.0703125 2.08203125 C-0.04710938 1.39496094 -0.02390625 0.70789063 0 0 Z " fill="#F6F9F5" transform="translate(86,28)"/>
<path d="M0 0 C1.65 0 3.3 0 5 0 C5 1.98 5 3.96 5 6 C-0.53846154 6.36923077 -0.53846154 6.36923077 -2.875 4.5 C-3.24625 4.005 -3.6175 3.51 -4 3 C-3.01 3 -2.02 3 -1 3 C-0.67 2.01 -0.34 1.02 0 0 Z " fill="#33632C" transform="translate(151,45)"/>
<path d="M0 0 C0.33 0 0.66 0 1 0 C1.33 2.31 1.66 4.62 2 7 C3.32 6.67 4.64 6.34 6 6 C6.99 7.32 7.98 8.64 9 10 C5.535 11.485 5.535 11.485 2 13 C0.21590198 9.93753253 -0.22880021 7.77920727 -0.125 4.25 C-0.10695312 3.45078125 -0.08890625 2.6515625 -0.0703125 1.828125 C-0.04710937 1.22484375 -0.02390625 0.6215625 0 0 Z " fill="#26B51B" transform="translate(180,35)"/>
<path d="M0 0 C1.98 0.66 3.96 1.32 6 2 C5.6875 4.375 5.6875 4.375 5 7 C4.01 7.66 3.02 8.32 2 9 C-0.29013653 5.5647952 -0.17842973 4.014669 0 0 Z " fill="#15B40C" transform="translate(38,46)"/>
<path d="M0 0 C0 0.33 0 0.66 0 1 C-1.98 1 -3.96 1 -6 1 C-6.12375 1.763125 -6.2475 2.52625 -6.375 3.3125 C-7 6 -7 6 -9 9 C-9.99 9 -10.98 9 -12 9 C-11.52 3.6 -11.52 3.6 -9.375 1.125 C-6.16894306 -0.39365855 -3.49954689 -0.20189694 0 0 Z " fill="#286021" transform="translate(126,28)"/>
<path d="M0 0 C1.875 0.25 1.875 0.25 4 1 C5.3125 2.9375 5.3125 2.9375 6 5 C5.67 5.66 5.34 6.32 5 7 C3.35 7 1.7 7 0 7 C-0.93423645 3.98968256 -1.04449911 3.13349732 0 0 Z " fill="#1E5716" transform="translate(145,41)"/>
<path d="M0 0 C2 2 2 2 2.3125 5.375 C1.99258956 9.0859611 1.5224581 10.37243948 -1 13 C-0.67 10.69 -0.34 8.38 0 6 C-1.32 5.67 -2.64 5.34 -4 5 C-4.33 5.99 -4.66 6.98 -5 8 C-5 6.35 -5 4.7 -5 3 C-3.35 3 -1.7 3 0 3 C0 2.01 0 1.02 0 0 Z " fill="#3BB82C" transform="translate(229,34)"/>
<path d="M0 0 C1.67542976 0.28604898 3.34385343 0.61781233 5 1 C5.5625 2.9375 5.5625 2.9375 6 5 C5 6 5 6 2.4375 6.0625 C1.2309375 6.0315625 1.2309375 6.0315625 0 6 C-0.38218767 4.34385343 -0.71395102 2.67542976 -1 1 C-0.67 0.67 -0.34 0.34 0 0 Z " fill="#30B625" transform="translate(259,21)"/>
<path d="M0 0 C0 0.66 0 1.32 0 2 C0.99 1.67 1.98 1.34 3 1 C3.33 1.99 3.66 2.98 4 4 C3.236875 3.814375 2.47375 3.62875 1.6875 3.4375 C-1.08967375 2.77180827 -1.08967375 2.77180827 -4 4 C-4 3.01 -4 2.02 -4 1 C-5.98 1.33 -7.96 1.66 -10 2 C-10 1.34 -10 0.68 -10 0 C-6.30581799 -1.231394 -3.7943739 -0.64432764 0 0 Z " fill="#06B500" transform="translate(246,46)"/>
<path d="M0 0 C0.33 0 0.66 0 1 0 C1 5.94 1 11.88 1 18 C0.34 16.68 -0.32 15.36 -1 14 C-1.99 14 -2.98 14 -4 14 C-3.34 13.01 -2.68 12.02 -2 11 C-1.55888435 9.11845117 -1.1890733 7.21937362 -0.875 5.3125 C-0.70742188 4.31863281 -0.53984375 3.32476562 -0.3671875 2.30078125 C-0.24601562 1.54152344 -0.12484375 0.78226563 0 0 Z " fill="#E6F8E2" transform="translate(257,33)"/>
<path d="M0 0 C3.63 0 7.26 0 11 0 C11 0.66 11 1.32 11 2 C9.8553125 1.9071875 9.8553125 1.9071875 8.6875 1.8125 C5.49347163 2.03533919 5.0779007 2.73319924 3 5 C2.01 5 1.02 5 0 5 C0 3.35 0 1.7 0 0 Z " fill="#0CB202" transform="translate(158,22)"/>
<path d="M0 0 C1.65 0 3.3 0 5 0 C5.33 2.31 5.66 4.62 6 7 C6.66 7 7.32 7 8 7 C8 8.98 8 10.96 8 13 C7.01 13.33 6.02 13.66 5 14 C4.34 13.34 3.68 12.68 3 12 C3.66 12 4.32 12 5 12 C4.67 11.34 4.34 10.68 4 10 C3.93049459 8.45976004 3.91547643 6.91665012 3.9375 5.375 C3.94652344 4.55773437 3.95554688 3.74046875 3.96484375 2.8984375 C3.97644531 2.27195312 3.98804688 1.64546875 4 1 C2.68 0.67 1.36 0.34 0 0 Z " fill="#32B522" transform="translate(234,22)"/>
<path d="M0 0 C1.65 0 3.3 0 5 0 C5 0.66 5 1.32 5 2 C6.65 2 8.3 2 10 2 C9.01 2.33 8.02 2.66 7 3 C7 3.66 7 4.32 7 5 C4.625 5.125 4.625 5.125 2 5 C1.34 4.34 0.68 3.68 0 3 C0 2.01 0 1.02 0 0 Z " fill="#115008" transform="translate(115,45)"/>
<path d="M0 0 C1.32 0 2.64 0 4 0 C4 2.31 4 4.62 4 7 C5.32 7 6.64 7 8 7 C8 8.98 8 10.96 8 13 C6.68 12.67 5.36 12.34 4 12 C4.99 12 5.98 12 7 12 C5.68 11.34 4.36 10.68 3 10 C3 7.03 3 4.06 3 1 C2.01 0.67 1.02 0.34 0 0 Z " fill="#64C357" transform="translate(270,21)"/>
<path d="M0 0 C0.33 0 0.66 0 1 0 C1.66 2.64 2.32 5.28 3 8 C-0.28976808 9.09658936 -1.71303767 8.79953138 -5 8 C-5 7.34 -5 6.68 -5 6 C-6.98 6.33 -8.96 6.66 -11 7 C-11 6.34 -11 5.68 -11 5 C-8.69 5 -6.38 5 -4 5 C-4 5.66 -4 6.32 -4 7 C-2.68 7 -1.36 7 0 7 C0 6.01 0 5.02 0 4 C-0.66 3.67 -1.32 3.34 -2 3 C-1.34 3 -0.68 3 0 3 C0 2.01 0 1.02 0 0 Z " fill="#2F6027" transform="translate(125,39)"/>
<path d="M0 0 C0.33 0 0.66 0 1 0 C1 2.97 1 5.94 1 9 C0.67 8.34 0.34 7.68 0 7 C-0.94875 7.515625 -1.8975 8.03125 -2.875 8.5625 C-3.90625 9.036875 -4.9375 9.51125 -6 10 C-6.66 9.67 -7.32 9.34 -8 9 C-7.34 7.02 -6.68 5.04 -6 3 C-5.67 3.99 -5.34 4.98 -5 6 C-4.34 6 -3.68 6 -3 6 C-2.67 5.34 -2.34 4.68 -2 4 C-1.33333333 2.66666667 -0.66666667 1.33333333 0 0 Z " fill="#3DB92D" transform="translate(255,35)"/>
<path d="M0 0 C0.33 0.99 0.66 1.98 1 3 C0.01 3 -0.98 3 -2 3 C-2 6.3 -2 9.6 -2 13 C-2.33 13 -2.66 13 -3 13 C-3.33 11.02 -3.66 9.04 -4 7 C-4.66 7.66 -5.32 8.32 -6 9 C-6 7.02 -6 5.04 -6 3 C-4.02 2.01 -2.04 1.02 0 0 Z " fill="#25B81C" transform="translate(276,30)"/>
<path d="M0 0 C0.99 0.495 0.99 0.495 2 1 C2 1.66 2 2.32 2 3 C4.64 2.34 7.28 1.68 10 1 C10 3.64 10 6.28 10 9 C7.69 9 5.38 9 3 9 C3 8.67 3 8.34 3 8 C4.65 8 6.3 8 8 8 C7.67 7.01 7.34 6.02 7 5 C4.03 4.505 4.03 4.505 1 4 C0.67 2.68 0.34 1.36 0 0 Z " fill="#39B62A" transform="translate(213,42)"/>
<path d="M0 0 C0.99 0 1.98 0 3 0 C3 1.65 3 3.3 3 5 C0.97905928 5 -1.04198 4.9787351 -3.0625 4.9375 C-5.93459792 4.78892965 -5.93459792 4.78892965 -8 6 C-8 5.01 -8 4.02 -8 3 C-5.36 3 -2.72 3 0 3 C0 2.01 0 1.02 0 0 Z " fill="#37B82A" transform="translate(195,30)"/>
<path d="M0 0 C2.625 0.9375 2.625 0.9375 5 2 C4.01 2.495 4.01 2.495 3 3 C3 3.99 3 4.98 3 6 C1.68 5.67 0.36 5.34 -1 5 C-1.33 3.68 -1.66 2.36 -2 1 C-1.34 0.67 -0.68 0.34 0 0 Z " fill="#33B526" transform="translate(44,38)"/>
<path d="M0 0 C2 2 2 2 2.046875 3.91015625 C1.94890625 4.62042969 1.8509375 5.33070312 1.75 6.0625 C1.61851563 7.13177734 1.61851563 7.13177734 1.484375 8.22265625 C1.32453125 8.80917969 1.1646875 9.39570312 1 10 C0.01 10.495 0.01 10.495 -1 11 C-1.33 7.7 -1.66 4.4 -2 1 C-1.34 0.67 -0.68 0.34 0 0 Z " fill="#70C765" transform="translate(32,34)"/>
<path d="M0 0 C0 2.31 0 4.62 0 7 C-1.32 6.67 -2.64 6.34 -4 6 C-4 4.35 -4 2.7 -4 1 C-2 0 -2 0 0 0 Z " fill="#0BB401" transform="translate(212,22)"/>
<path d="M0 0 C1.32 0 2.64 0 4 0 C4 1.65 4 3.3 4 5 C2.35 5 0.7 5 -1 5 C-1 2 -1 2 0 0 Z " fill="#09B202" transform="translate(175,45)"/>
<path d="M0 0 C0.99 0.33 1.98 0.66 3 1 C2.67 2.65 2.34 4.3 2 6 C0.68 6.33 -0.64 6.66 -2 7 C-2.125 4.625 -2.125 4.625 -2 2 C-1.34 1.34 -0.68 0.68 0 0 Z " fill="#06B401" transform="translate(252,34)"/>
<path d="M0 0 C5.08335725 0.15404113 7.35754718 3.02068432 10.64453125 6.50390625 C11.09183594 6.99761719 11.53914063 7.49132812 12 8 C11.67 8.66 11.34 9.32 11 10 C9.5409857 8.70910257 8.08281149 7.41725561 6.625 6.125 C5.81289063 5.40570312 5.00078125 4.68640625 4.1640625 3.9453125 C2.74204921 2.66704062 1.35205414 1.35205414 0 0 Z " fill="#5EBA52" transform="translate(34,13)"/>
<path d="M0 0 C2 2 2 2 2.1953125 4.1640625 C2.16050781 5.38222656 2.16050781 5.38222656 2.125 6.625 C2.10695312 7.44226562 2.08890625 8.25953125 2.0703125 9.1015625 C2.04710937 9.72804688 2.02390625 10.35453125 2 11 C1.01 11 0.02 11 -1 11 C-0.814375 9.88625 -0.62875 8.7725 -0.4375 7.625 C0.31680657 4.17431139 0.31680657 4.17431139 -1 2 C-0.67 1.34 -0.34 0.68 0 0 Z " fill="#2DB31B" transform="translate(177,25)"/>
<path d="M0 0 C0.99 0.66 1.98 1.32 3 2 C2.01 2.495 2.01 2.495 1 3 C0.31527335 4.88764903 0.31527335 4.88764903 -0.125 7.0625 C-0.29257813 7.79597656 -0.46015625 8.52945312 -0.6328125 9.28515625 C-0.75398437 9.85105469 -0.87515625 10.41695312 -1 11 C-2 9 -3 7 -4 5 C-3.34 5 -2.68 5 -2 5 C-2 4.01 -2 3.02 -2 2 C-1.34 2 -0.68 2 0 2 C0 1.34 0 0.68 0 0 Z " fill="#31B71F" transform="translate(174,23)"/>
<path d="M0 0 C-0.99 1.485 -0.99 1.485 -2 3 C-5.625 3.6875 -5.625 3.6875 -9 4 C-6.3515138 0.02727069 -4.69305063 -1.56435021 0 0 Z " fill="#41B634" transform="translate(38,44)"/>
<path d="M0 0 C0.33 0 0.66 0 1 0 C1 2.97 1 5.94 1 9 C-0.98 9 -2.96 9 -5 9 C-5 8.34 -5 7.68 -5 7 C-3.35 6.67 -1.7 6.34 0 6 C0 4.02 0 2.04 0 0 Z " fill="#265920" transform="translate(139,42)"/>
<path d="M0 0 C0 0.99 0 1.98 0 3 C0.66 3 1.32 3 2 3 C2.33 2.34 2.66 1.68 3 1 C4.32 1.99 5.64 2.98 7 4 C5.741875 4.020625 4.48375 4.04125 3.1875 4.0625 C2.47980469 4.07410156 1.77210938 4.08570313 1.04296875 4.09765625 C-1 4 -1 4 -4 3 C-4 2.34 -4 1.68 -4 1 C-2 0 -2 0 0 0 Z " fill="#33B422" transform="translate(242,47)"/>
<path d="M0 0 C3 2 3 2 3.75 3.9375 C4 6 4 6 3 9 C2.01 9.33 1.02 9.66 0 10 C0.185625 9.0925 0.37125 8.185 0.5625 7.25 C0.95734621 4.31685676 0.94691572 2.7355343 0 0 Z " fill="#03B603" transform="translate(210,39)"/>
<path d="M0 0 C0.33 0.66 0.66 1.32 1 2 C2.32 1.67 3.64 1.34 5 1 C4.67 2.65 4.34 4.3 4 6 C3.01 5.67 2.02 5.34 1 5 C0.67 5.99 0.34 6.98 0 8 C0 5.36 0 2.72 0 0 Z " fill="#0B4D05" transform="translate(89,36)"/>
<path d="M0 0 C0.99 0.33 1.98 0.66 3 1 C3.33 1.99 3.66 2.98 4 4 C2.35 4.33 0.7 4.66 -1 5 C-1.33 3.68 -1.66 2.36 -2 1 C-1.34 0.67 -0.68 0.34 0 0 Z " fill="#B3E1AE" transform="translate(56,28)"/>
<path d="M0 0 C1.65 0.33 3.3 0.66 5 1 C4.67 1.99 4.34 2.98 4 4 C2.02 4.33 0.04 4.66 -2 5 C-1.34 4.67 -0.68 4.34 0 4 C0 2.68 0 1.36 0 0 Z " fill="#06B501" transform="translate(242,29)"/>
<path d="M0 0 C0.99 0.33 1.98 0.66 3 1 C3 2.65 3 4.3 3 6 C1.68 5.67 0.36 5.34 -1 5 C-0.67 3.35 -0.34 1.7 0 0 Z " fill="#19B40E" transform="translate(269,22)"/>
<path d="M0 0 C1.32 0.33 2.64 0.66 4 1 C3.67 1.99 3.34 2.98 3 4 C2.34 4 1.68 4 1 4 C1 5.98 1 7.96 1 10 C0.67 10 0.34 10 0 10 C0 6.7 0 3.4 0 0 Z " fill="#15B402" transform="translate(269,29)"/>
<path d="M0 0 C0 0.33 0 0.66 0 1 C-1.98 1 -3.96 1 -6 1 C-6.33 2.65 -6.66 4.3 -7 6 C-7.99 4.68 -8.98 3.36 -10 2 C-6.3558226 -0.4294516 -4.28758728 -0.16179575 0 0 Z " fill="#3C6A34" transform="translate(126,28)"/>
<path d="M0 0 C2.31 0 4.62 0 7 0 C7.33 0.66 7.66 1.32 8 2 C6.68 2 5.36 2 4 2 C3.67 2.66 3.34 3.32 3 4 C1.97895449 3.02149805 0.9793879 2.02019573 0 1 C0 0.67 0 0.34 0 0 Z " fill="#38BA2D" transform="translate(187,28)"/>
<path d="M0 0 C2.72426311 2.35277269 3.8141763 4.62496331 5 8 C4.01 8 3.02 8 2 8 C0.23537317 4.91190305 0 3.76687864 0 0 Z " fill="#41B431" transform="translate(4,43)"/>
<path d="M0 0 C1.32 0.33 2.64 0.66 4 1 C3.67 1.99 3.34 2.98 3 4 C2.34 4 1.68 4 1 4 C0.01 4.66 -0.98 5.32 -2 6 C-2 5.01 -2 4.02 -2 3 C-1.34 3 -0.68 3 0 3 C0 2.01 0 1.02 0 0 Z " fill="#06B605" transform="translate(225,39)"/>
</svg>
